<svg viewBox="62.91 226.476 571.7819999999999 246.04799999999997" xml:space="preserve" id="svg2" version="1.1" xmlns="http://www.w3.org/2000/svg" style="max-height: 500px" width="571.7819999999999" height="246.04799999999997"><metadata id="metadata8">image/svg+xml</metadata><defs id="defs6"><clipPath id="clipPath20" clipPathUnits="userSpaceOnUse"><path id="path18" d="M 0,0 H 1080 V 1872.926 H 0 Z"/></clipPath><clipPath id="clipPath28" clipPathUnits="userSpaceOnUse"><path id="path26" d="M -176.662,2108.39 H 1233.45 V -241.784 H -176.662 Z"/></clipPath><linearGradient id="linearGradient38" spreadMethod="pad" gradientTransform="matrix(0,-626.85181,-626.85181,0,-82.240501,2108.3867)" gradientUnits="userSpaceOnUse" y2="0" x2="1" y1="0" x1="0"><stop id="stop34" offset="0" style="stop-opacity:1;stop-color:#173d6e"/><stop id="stop36" offset="1" style="stop-opacity:1;stop-color:#86a828"/></linearGradient><linearGradient id="linearGradient48" spreadMethod="pad" gradientTransform="matrix(0,-754.4198,-754.4198,0,-32.865505,2108.3867)" gradientUnits="userSpaceOnUse" y2="0" x2="1" y1="0" x1="0"><stop id="stop44" offset="0" style="stop-opacity:1;stop-color:#173d6e"/><stop id="stop46" offset="1" style="stop-opacity:1;stop-color:#86a828"/></linearGradient><linearGradient id="linearGradient58" spreadMethod="pad" gradientTransform="matrix(0,-811.47168,-811.47168,0,-4.5565033,2108.3867)" gradientUnits="userSpaceOnUse" y2="0" x2="1" y1="0" x1="0"><stop id="stop54" offset="0" style="stop-opacity:1;stop-color:#173d6e"/><stop id="stop56" offset="1" style="stop-opacity:1;stop-color:#86a828"/></linearGradient><linearGradient id="linearGradient68" spreadMethod="pad" gradientTransform="matrix(0,-877.59662,-877.59662,0,19.878487,2108.387)" gradientUnits="userSpaceOnUse" y2="0" x2="1" y1="0" x1="0"><stop id="stop64" offset="0" style="stop-opacity:1;stop-color:#173d6e"/><stop id="stop66" offset="1" style="stop-opacity:1;stop-color:#86a828"/></linearGradient><linearGradient id="linearGradient78" spreadMethod="pad" gradientTransform="matrix(0,-940.06329,-940.06329,0,67.591003,2108.387)" gradientUnits="userSpaceOnUse" y2="0" x2="1" y1="0" x1="0"><stop id="stop74" offset="0" style="stop-opacity:1;stop-color:#173d6e"/><stop id="stop76" offset="1" style="stop-opacity:1;stop-color:#86a828"/></linearGradient><linearGradient id="linearGradient88" spreadMethod="pad" gradientTransform="matrix(0,-1065.4152,-1065.4152,0,117.16496,2108.387)" gradientUnits="userSpaceOnUse" y2="0" x2="1" y1="0" x1="0"><stop id="stop84" offset="0" style="stop-opacity:1;stop-color:#173d6e"/><stop id="stop86" offset="1" style="stop-opacity:1;stop-color:#86a828"/></linearGradient><linearGradient id="linearGradient98" spreadMethod="pad" gradientTransform="matrix(0,-1266.8176,-1266.8176,0,143.70801,2108.387)" gradientUnits="userSpaceOnUse" y2="0" x2="1" y1="0" x1="0"><stop id="stop94" offset="0" style="stop-opacity:1;stop-color:#173d6e"/><stop id="stop96" offset="1" style="stop-opacity:1;stop-color:#86a828"/></linearGradient><linearGradient id="linearGradient108" spreadMethod="pad" gradientTransform="matrix(0,-1327.6528,-1327.6528,0,161.28145,2108.3867)" gradientUnits="userSpaceOnUse" y2="0" x2="1" y1="0" x1="0"><stop id="stop104" offset="0" style="stop-opacity:1;stop-color:#173d6e"/><stop id="stop106" offset="1" style="stop-opacity:1;stop-color:#86a828"/></linearGradient><linearGradient id="linearGradient118" spreadMethod="pad" gradientTransform="matrix(0,-1374.6377,-1374.6377,0,185.13098,2108.387)" gradientUnits="userSpaceOnUse" y2="0" x2="1" y1="0" x1="0"><stop id="stop114" offset="0" style="stop-opacity:1;stop-color:#173d6e"/><stop id="stop116" offset="1" style="stop-opacity:1;stop-color:#86a828"/></linearGradient><linearGradient id="linearGradient128" spreadMethod="pad" gradientTransform="matrix(0,-1446.526,-1446.526,0,288.34845,2108.387)" gradientUnits="userSpaceOnUse" y2="0" x2="1" y1="0" x1="0"><stop id="stop124" offset="0" style="stop-opacity:1;stop-color:#173d6e"/><stop id="stop126" offset="1" style="stop-opacity:1;stop-color:#86a828"/></linearGradient><linearGradient id="linearGradient138" spreadMethod="pad" gradientTransform="matrix(0,-1480.6223,-1480.6223,0,441.40244,2108.3867)" gradientUnits="userSpaceOnUse" y2="0" x2="1" y1="0" x1="0"><stop id="stop134" offset="0" style="stop-opacity:1;stop-color:#173d6e"/><stop id="stop136" offset="1" style="stop-opacity:1;stop-color:#86a828"/></linearGradient><linearGradient id="linearGradient148" spreadMethod="pad" gradientTransform="matrix(0,-762.68909,-762.68909,0,872.59601,520.90594)" gradientUnits="userSpaceOnUse" y2="0" x2="1" y1="0" x1="0"><stop id="stop144" offset="0" style="stop-opacity:1;stop-color:#173d6e"/><stop id="stop146" offset="1" style="stop-opacity:1;stop-color:#86a828"/></linearGradient><linearGradient id="linearGradient158" spreadMethod="pad" gradientTransform="matrix(0,-804.81793,-804.81793,0,850.16803,563.03497)" gradientUnits="userSpaceOnUse" y2="0" x2="1" y1="0" x1="0"><stop id="stop154" offset="0" style="stop-opacity:1;stop-color:#173d6e"/><stop id="stop156" offset="1" style="stop-opacity:1;stop-color:#86a828"/></linearGradient><linearGradient id="linearGradient168" spreadMethod="pad" gradientTransform="matrix(0,-1517.9246,-1517.9246,0,481.323,2108.3867)" gradientUnits="userSpaceOnUse" y2="0" x2="1" y1="0" x1="0"><stop id="stop164" offset="0" style="stop-opacity:1;stop-color:#173d6e"/><stop id="stop166" offset="1" style="stop-opacity:1;stop-color:#86a828"/></linearGradient><linearGradient id="linearGradient178" spreadMethod="pad" gradientTransform="matrix(0,-1222.8262,-1222.8262,0,534.54199,981.04303)" gradientUnits="userSpaceOnUse" y2="0" x2="1" y1="0" x1="0"><stop id="stop174" offset="0" style="stop-opacity:1;stop-color:#173d6e"/><stop id="stop176" offset="1" style="stop-opacity:1;stop-color:#86a828"/></linearGradient><linearGradient id="linearGradient188" spreadMethod="pad" gradientTransform="matrix(0,-683.31091,-683.31091,0,288.94901,441.52625)" gradientUnits="userSpaceOnUse" y2="0" x2="1" y1="0" x1="0"><stop id="stop184" offset="0" style="stop-opacity:1;stop-color:#173d6e"/><stop id="stop186" offset="1" style="stop-opacity:1;stop-color:#86a828"/></linearGradient><linearGradient id="linearGradient198" spreadMethod="pad" gradientTransform="matrix(0,-1381.9619,-1381.9619,0,617.44299,1140.1788)" gradientUnits="userSpaceOnUse" y2="0" x2="1" y1="0" x1="0"><stop id="stop194" offset="0" style="stop-opacity:1;stop-color:#173d6e"/><stop id="stop196" offset="1" style="stop-opacity:1;stop-color:#86a828"/></linearGradient><linearGradient id="linearGradient208" spreadMethod="pad" gradientTransform="matrix(0,-1174.0841,-1174.0841,0,808.99298,932.30109)" gradientUnits="userSpaceOnUse" y2="0" x2="1" y1="0" x1="0"><stop id="stop204" offset="0" style="stop-opacity:1;stop-color:#173d6e"/><stop id="stop206" offset="1" style="stop-opacity:1;stop-color:#86a828"/></linearGradient><linearGradient id="linearGradient218" spreadMethod="pad" gradientTransform="matrix(0,-665.44873,-665.44873,0,1119.5273,2108.3867)" gradientUnits="userSpaceOnUse" y2="0" x2="1" y1="0" x1="0"><stop id="stop214" offset="0" style="stop-opacity:1;stop-color:#173d6e"/><stop id="stop216" offset="1" style="stop-opacity:1;stop-color:#86a828"/></linearGradient><linearGradient id="linearGradient228" spreadMethod="pad" gradientTransform="matrix(0,-1470.7738,-1470.7738,0,563.07043,1228.9908)" gradientUnits="userSpaceOnUse" y2="0" x2="1" y1="0" x1="0"><stop id="stop224" offset="0" style="stop-opacity:1;stop-color:#173d6e"/><stop id="stop226" offset="1" style="stop-opacity:1;stop-color:#86a828"/></linearGradient><linearGradient id="linearGradient238" spreadMethod="pad" gradientTransform="matrix(0,-987.79602,-987.79602,0,821.78601,746.01294)" gradientUnits="userSpaceOnUse" y2="0" x2="1" y1="0" x1="0"><stop id="stop234" offset="0" style="stop-opacity:1;stop-color:#173d6e"/><stop id="stop236" offset="1" style="stop-opacity:1;stop-color:#86a828"/></linearGradient><linearGradient id="linearGradient248" spreadMethod="pad" gradientTransform="matrix(0,-657.82104,-657.82104,0,917.62891,416.03793)" gradientUnits="userSpaceOnUse" y2="0" x2="1" y1="0" x1="0"><stop id="stop244" offset="0" style="stop-opacity:1;stop-color:#173d6e"/><stop id="stop246" offset="1" style="stop-opacity:1;stop-color:#86a828"/></linearGradient><linearGradient id="linearGradient258" spreadMethod="pad" gradientTransform="matrix(0,-709.23907,-709.23907,0,896.30188,467.45599)" gradientUnits="userSpaceOnUse" y2="0" x2="1" y1="0" x1="0"><stop id="stop254" offset="0" style="stop-opacity:1;stop-color:#173d6e"/><stop id="stop256" offset="1" style="stop-opacity:1;stop-color:#86a828"/></linearGradient><linearGradient id="linearGradient268" spreadMethod="pad" gradientTransform="matrix(0,-576.30603,-576.30603,0,962.10394,334.52301)" gradientUnits="userSpaceOnUse" y2="0" x2="1" y1="0" x1="0"><stop id="stop264" offset="0" style="stop-opacity:1;stop-color:#173d6e"/><stop id="stop266" offset="1" style="stop-opacity:1;stop-color:#86a828"/></linearGradient><linearGradient id="linearGradient278" spreadMethod="pad" gradientTransform="matrix(0,-518.76312,-518.76312,0,976.06799,276.98001)" gradientUnits="userSpaceOnUse" y2="0" x2="1" y1="0" x1="0"><stop id="stop274" offset="0" style="stop-opacity:1;stop-color:#173d6e"/><stop id="stop276" offset="1" style="stop-opacity:1;stop-color:#86a828"/></linearGradient><linearGradient id="linearGradient288" spreadMethod="pad" gradientTransform="matrix(0,-466.86002,-466.86002,0,1001.107,225.077)" gradientUnits="userSpaceOnUse" y2="0" x2="1" y1="0" x1="0"><stop id="stop284" offset="0" style="stop-opacity:1;stop-color:#173d6e"/><stop id="stop286" offset="1" style="stop-opacity:1;stop-color:#86a828"/></linearGradient><linearGradient id="linearGradient298" spreadMethod="pad" gradientTransform="matrix(0,-414.82599,-414.82599,0,1016.8539,173.04298)" gradientUnits="userSpaceOnUse" y2="0" x2="1" y1="0" x1="0"><stop id="stop294" offset="0" style="stop-opacity:1;stop-color:#173d6e"/><stop id="stop296" offset="1" style="stop-opacity:1;stop-color:#86a828"/></linearGradient><linearGradient id="linearGradient308" spreadMethod="pad" gradientTransform="matrix(0,-308.99301,-308.99301,0,1082.4425,67.209991)" gradientUnits="userSpaceOnUse" y2="0" x2="1" y1="0" x1="0"><stop id="stop304" offset="0" style="stop-opacity:1;stop-color:#173d6e"/><stop id="stop306" offset="1" style="stop-opacity:1;stop-color:#86a828"/></linearGradient><linearGradient id="linearGradient318" spreadMethod="pad" gradientTransform="matrix(0,-335.09702,-335.09702,0,1061.5015,93.314003)" gradientUnits="userSpaceOnUse" y2="0" x2="1" y1="0" x1="0"><stop id="stop314" offset="0" style="stop-opacity:1;stop-color:#173d6e"/><stop id="stop316" offset="1" style="stop-opacity:1;stop-color:#86a828"/></linearGradient><linearGradient id="linearGradient328" spreadMethod="pad" gradientTransform="matrix(0,-694.90356,-694.90356,0,-53.666996,2108.387)" gradientUnits="userSpaceOnUse" y2="0" x2="1" y1="0" x1="0"><stop id="stop324" offset="0" style="stop-opacity:1;stop-color:#173d6e"/><stop id="stop326" offset="1" style="stop-opacity:1;stop-color:#86a828"/></linearGradient><linearGradient id="linearGradient338" spreadMethod="pad" gradientTransform="matrix(0,-1017.1732,-1017.1732,0,90.570976,2108.3867)" gradientUnits="userSpaceOnUse" y2="0" x2="1" y1="0" x1="0"><stop id="stop334" offset="0" style="stop-opacity:1;stop-color:#173d6e"/><stop id="stop336" offset="1" style="stop-opacity:1;stop-color:#86a828"/></linearGradient><linearGradient id="linearGradient348" spreadMethod="pad" gradientTransform="matrix(0,-1401.4712,-1401.4712,0,222.97545,2108.3867)" gradientUnits="userSpaceOnUse" y2="0" x2="1" y1="0" x1="0"><stop id="stop344" offset="0" style="stop-opacity:1;stop-color:#173d6e"/><stop id="stop346" offset="1" style="stop-opacity:1;stop-color:#86a828"/></linearGradient><linearGradient id="linearGradient358" spreadMethod="pad" gradientTransform="matrix(0,-866.73901,-866.73901,0,831.91992,624.95599)" gradientUnits="userSpaceOnUse" y2="0" x2="1" y1="0" x1="0"><stop id="stop354" offset="0" style="stop-opacity:1;stop-color:#173d6e"/><stop id="stop356" offset="1" style="stop-opacity:1;stop-color:#86a828"/></linearGradient><linearGradient id="linearGradient368" spreadMethod="pad" gradientTransform="matrix(0,-723.79504,-723.79504,0,1039.683,2108.387)" gradientUnits="userSpaceOnUse" y2="0" x2="1" y1="0" x1="0"><stop id="stop364" offset="0" style="stop-opacity:1;stop-color:#173d6e"/><stop id="stop366" offset="1" style="stop-opacity:1;stop-color:#86a828"/></linearGradient><linearGradient id="linearGradient378" spreadMethod="pad" gradientTransform="matrix(0,-821.96796,-821.96796,0,528.3905,1297.2629)" gradientUnits="userSpaceOnUse" y2="0" x2="1" y1="0" x1="0"><stop id="stop374" offset="0" style="stop-opacity:1;stop-color:#173d6e"/><stop id="stop376" offset="1" style="stop-opacity:1;stop-color:#86a828"/></linearGradient><linearGradient id="linearGradient388" spreadMethod="pad" gradientTransform="matrix(0,-621.67609,-621.67609,0,940.77545,379.89301)" gradientUnits="userSpaceOnUse" y2="0" x2="1" y1="0" x1="0"><stop id="stop384" offset="0" style="stop-opacity:1;stop-color:#173d6e"/><stop id="stop386" offset="1" style="stop-opacity:1;stop-color:#86a828"/></linearGradient><linearGradient id="linearGradient398" spreadMethod="pad" gradientTransform="matrix(0,-380.94598,-380.94598,0,1038.506,139.16299)" gradientUnits="userSpaceOnUse" y2="0" x2="1" y1="0" x1="0"><stop id="stop394" offset="0" style="stop-opacity:1;stop-color:#173d6e"/><stop id="stop396" offset="1" style="stop-opacity:1;stop-color:#86a828"/></linearGradient><linearGradient id="linearGradient408" spreadMethod="pad" gradientTransform="matrix(0,-1569.9517,-1569.9517,0,501.98352,2108.3867)" gradientUnits="userSpaceOnUse" y2="0" x2="1" y1="0" x1="0"><stop id="stop404" offset="0" style="stop-opacity:1;stop-color:#173d6e"/><stop id="stop406" offset="1" style="stop-opacity:1;stop-color:#86a828"/></linearGradient><clipPath id="clipPath800" clipPathUnits="userSpaceOnUse"><path id="path798" d="M 534.505,702.614 C 505.759,699.32 478.218,683.69 461.038,655.605 v 0 L 109.31,80.689 C 92.765,53.65 90.709,25.035 98.495,0 v 0 h 267.167 l 128.95,61.606 c 27.936,13.35 60.485,12.961 88.094,-1.049 v 0 L 702.061,0 h 279.924 c 4.566,21.991 1.575,46.198 -11.913,69.521 v 0 L 632.4,653.48 c -16.958,29.327 -45.205,45.744 -74.768,49.134 v 0 z"/></clipPath><clipPath id="clipPath816" clipPathUnits="userSpaceOnUse"><path id="path814" d="M 0,0 H 1080 V 1919.99 H 0 Z"/></clipPath><clipPath id="clipPath828" clipPathUnits="userSpaceOnUse"><path id="path826" d="M 94.128,702.614 H 983.98 V -81.2486 H 94.128 Z"/></clipPath><clipPath id="clipPath832" clipPathUnits="userSpaceOnUse"><path id="path830" d="M 94.128,-81.248 H 983.98 V 702.614 H 94.128 Z"/></clipPath><clipPath id="clipPath890" clipPathUnits="userSpaceOnUse"><path id="path888" d="M 0,1919.99 H 1080 V 0 H 0 Z"/></clipPath><clipPath id="clipPath902" clipPathUnits="userSpaceOnUse"><path id="path900" d="m 668.329,1609.294 c 0.274,-1.435 0.52,-2.88 0.736,-4.331 v 0 c 2.209,-14.755 1.432,-29.627 -2.313,-44.201 v 0 c -1.596,-6.208 -3.687,-12.204 -6.265,-17.958 v 0 c -3.431,-7.667 -7.721,-14.907 -12.836,-21.65 v 0 h 4.031 c 1.724,2.33 3.356,4.714 4.889,7.156 v 0 c 6.197,9.852 10.807,20.594 13.75,32.044 v 0 c 3.8,14.787 4.588,29.878 2.346,44.853 v 0 c -0.205,1.369 -0.433,2.728 -0.69,4.087 v 0 z"/></clipPath><linearGradient id="linearGradient920" spreadMethod="pad" gradientTransform="matrix(26.65278,82.919762,82.919762,-26.65278,651.14075,1527.9153)" gradientUnits="userSpaceOnUse" y2="0" x2="1" y1="0" x1="0"><stop id="stop912" offset="0" style="stop-opacity:1;stop-color:#ffffff"/><stop id="stop914" offset="0.500558" style="stop-opacity:1;stop-color:#ffffff"/><stop id="stop916" offset="0.901731" style="stop-opacity:0;stop-color:#ffffff"/><stop id="stop918" offset="1" style="stop-opacity:0;stop-color:#ffffff"/></linearGradient><mask id="mask922" height="1" width="1" y="0" x="0" maskUnits="userSpaceOnUse"><g id="g932"><g id="g930"><g id="g928"><g id="g926"><path id="path924" style="fill:url(#linearGradient920);stroke:none" d="M -32768,32767 H 32767 V -32768 H -32768 Z"/></g></g></g></g></mask><linearGradient id="linearGradient946" spreadMethod="pad" gradientTransform="matrix(26.65278,82.919762,82.919762,-26.65278,651.14075,1527.9153)" gradientUnits="userSpaceOnUse" y2="0" x2="1" y1="0" x1="0"><stop id="stop938" offset="0" style="stop-opacity:1;stop-color:#b4cc04"/><stop id="stop940" offset="0.500558" style="stop-opacity:1;stop-color:#b4cc04"/><stop id="stop942" offset="0.901731" style="stop-opacity:1;stop-color:#ffffff"/><stop id="stop944" offset="1" style="stop-opacity:1;stop-color:#ffffff"/></linearGradient><linearGradient id="linearGradient972" spreadMethod="pad" gradientTransform="matrix(0,-98.682205,-98.682205,0,652.60742,1620.8787)" gradientUnits="userSpaceOnUse" y2="0" x2="1" y1="0" x1="0"><stop id="stop962" offset="0" style="stop-opacity:1;stop-color:#004f9f"/><stop id="stop964" offset="0.219597" style="stop-opacity:1;stop-color:#004f9f"/><stop id="stop966" offset="0.646419" style="stop-opacity:1;stop-color:#36a9e1"/><stop id="stop968" offset="0.970651" style="stop-opacity:1;stop-color:#5bc5f2"/><stop id="stop970" offset="1" style="stop-opacity:1;stop-color:#5bc5f2"/></linearGradient><clipPath id="clipPath982" clipPathUnits="userSpaceOnUse"><path id="path980" d="M 0,1919.99 H 1080 V 0 H 0 Z"/></clipPath><clipPath id="clipPath994" clipPathUnits="userSpaceOnUse"><path id="path992" d="m 428.318,1615.846 c -1.724,-2.329 -3.356,-4.713 -4.889,-7.154 v 0 c -6.197,-9.853 -10.807,-20.594 -13.75,-32.045 v 0 c -3.8,-14.788 -4.588,-29.879 -2.346,-44.852 v 0 c 0.205,-1.369 0.433,-2.73 0.69,-4.087 v 0 h 3.648 c -0.274,1.433 -0.52,2.879 -0.736,4.33 v 0 c -2.209,14.755 -1.432,29.627 2.313,44.201 v 0 c 1.596,6.209 3.687,12.203 6.265,17.957 v 0 c 3.431,7.668 7.721,14.909 12.836,21.65 v 0 z"/></clipPath><linearGradient id="linearGradient1012" spreadMethod="pad" gradientTransform="matrix(-26.65278,-82.919762,-82.919762,26.65278,428.85922,1609.0857)" gradientUnits="userSpaceOnUse" y2="0" x2="1" y1="0" x1="0"><stop id="stop1004" offset="0" style="stop-opacity:1;stop-color:#ffffff"/><stop id="stop1006" offset="0.500558" style="stop-opacity:1;stop-color:#ffffff"/><stop id="stop1008" offset="0.901731" style="stop-opacity:0;stop-color:#ffffff"/><stop id="stop1010" offset="1" style="stop-opacity:0;stop-color:#ffffff"/></linearGradient><mask id="mask1014" height="1" width="1" y="0" x="0" maskUnits="userSpaceOnUse"><g id="g1024"><g id="g1022"><g id="g1020"><g id="g1018"><path id="path1016" style="fill:url(#linearGradient1012);stroke:none" d="M -32768,32767 H 32767 V -32768 H -32768 Z"/></g></g></g></g></mask><linearGradient id="linearGradient1038" spreadMethod="pad" gradientTransform="matrix(-26.65278,-82.919762,-82.919762,26.65278,428.85922,1609.0857)" gradientUnits="userSpaceOnUse" y2="0" x2="1" y1="0" x1="0"><stop id="stop1030" offset="0" style="stop-opacity:1;stop-color:#b4cc04"/><stop id="stop1032" offset="0.500558" style="stop-opacity:1;stop-color:#b4cc04"/><stop id="stop1034" offset="0.901731" style="stop-opacity:1;stop-color:#ffffff"/><stop id="stop1036" offset="1" style="stop-opacity:1;stop-color:#ffffff"/></linearGradient><linearGradient id="linearGradient1064" spreadMethod="pad" gradientTransform="matrix(0,98.682205,98.682205,0,427.39258,1516.1223)" gradientUnits="userSpaceOnUse" y2="0" x2="1" y1="0" x1="0"><stop id="stop1054" offset="0" style="stop-opacity:1;stop-color:#004f9f"/><stop id="stop1056" offset="0.219597" style="stop-opacity:1;stop-color:#004f9f"/><stop id="stop1058" offset="0.646419" style="stop-opacity:1;stop-color:#36a9e1"/><stop id="stop1060" offset="0.970651" style="stop-opacity:1;stop-color:#5bc5f2"/><stop id="stop1062" offset="1" style="stop-opacity:1;stop-color:#5bc5f2"/></linearGradient><clipPath id="clipPath1074" clipPathUnits="userSpaceOnUse"><path id="path1072" d="M 0,1919.99 H 1080 V 0 H 0 Z"/></clipPath></defs><g transform="matrix(1.3333333,0,0,-1.3333333,0,698.99988)" id="g10"><g transform="matrix(1.6682821,0,0,1.6682821,-638.74733,-2354.5763)" id="g884"><g clip-path="url(#clipPath890)" id="g886"><g transform="translate(537.1733,1549.8774)" id="g892"><path id="path894" style="fill:#291f6c;fill-opacity:1;fill-rule:nonzero;stroke:none" d="m 0,0 h -14.177 c -0.348,0 -0.63,0.282 -0.63,0.63 v 11.86 c 0,0.349 0.282,0.63 0.63,0.63 h 13.331 c 6.373,0 9.373,-2.343 9.373,-6.651 C 8.527,2.061 5.716,0 0,0 m -14.807,36.854 c 0,0.347 0.282,0.63 0.63,0.63 h 12.116 c 5.62,0 8.434,-2.062 8.434,-6.277 0,-4.312 -2.907,-6.466 -9.373,-6.466 h -11.177 c -0.348,0 -0.63,0.282 -0.63,0.63 z m 28.045,-17.78 c -0.389,0.134 -0.441,0.66 -0.077,0.854 2.267,1.213 7.172,4.766 7.172,12.776 0,11.245 -7.59,17.15 -22.208,17.15 h -25.7 c -0.609,0 -1.102,-0.494 -1.102,-1.103 v -60.016 c 0,-0.609 0.493,-1.103 1.102,-1.103 H 0.468 c 14.525,0 22.116,5.902 22.116,17.336 0,9.902 -6.578,13.17 -9.346,14.106 m 41.863,6.417 c -9.277,1.029 -11.995,2.622 -11.995,6.184 0,4.215 4.311,6.84 11.152,6.84 8.136,0 15.07,-3.69 18.078,-5.573 0.698,-0.438 1.602,0.074 1.602,0.898 v 11.278 c 0,0.699 -0.368,1.35 -0.972,1.701 -4.099,2.379 -11.35,3.971 -18.519,3.971 -15.743,0 -25.116,-7.495 -25.116,-19.958 0,-11.432 6.184,-16.775 22.209,-18.555 9.466,-1.032 12.37,-2.718 12.37,-6.465 0,-4.498 -4.029,-6.841 -11.62,-6.841 -9.304,0 -17.697,4.426 -21.089,6.477 C 30.5,5.872 29.613,5.363 29.613,4.541 V -6.816 c 0,-0.66 0.315,-1.289 0.871,-1.642 5.004,-3.179 12.638,-4.849 22.274,-4.849 15.932,0 24.927,7.03 24.927,19.494 0,11.899 -6.184,17.522 -22.584,19.304 M -53.345,49.854 c -0.608,0 -1.102,-0.494 -1.102,-1.103 V 11.434 c 0,-8.623 -3.063,-12.37 -10.372,-12.37 -5.004,0 -9.806,2.031 -14.339,5.625 -0.695,0.551 -1.713,0.069 -1.713,-0.818 V -7.383 c 0,-0.654 0.301,-1.308 0.867,-1.637 4.544,-2.639 8.462,-4.314 15.185,-4.508 15.056,-0.438 24.24,8.302 24.24,23.555 v 38.724 c 0,0.609 -0.494,1.103 -1.103,1.103 z"/></g></g></g><g transform="matrix(1.6682821,0,0,1.6682821,-638.74733,-2354.5763)" id="g896"><g clip-path="url(#clipPath902)" id="g898"><g id="g904"><g id="g906"/><g mask="url(#mask922)" id="g934"><g id="g936"><path id="path948" style="fill:url(#linearGradient946);stroke:none" d="m 668.329,1609.294 c 0.274,-1.435 0.52,-2.88 0.736,-4.331 v 0 c 2.209,-14.755 1.432,-29.627 -2.313,-44.201 v 0 c -1.596,-6.208 -3.687,-12.204 -6.265,-17.958 v 0 c -3.431,-7.667 -7.721,-14.907 -12.836,-21.65 v 0 h 4.031 c 1.724,2.33 3.356,4.714 4.889,7.156 v 0 c 6.197,9.852 10.807,20.594 13.75,32.044 v 0 c 3.8,14.787 4.588,29.878 2.346,44.853 v 0 c -0.205,1.369 -0.433,2.728 -0.69,4.087 v 0 z"/></g></g></g></g></g><g transform="matrix(1.6682821,0,0,1.6682821,-638.74733,-2354.5763)" id="g950"><g id="g952"><g id="g958"><g id="g960"><path id="path974" style="fill:url(#linearGradient972);stroke:none" d="m 648.472,1621.612 c 3.546,-8.36 6.016,-17.115 7.372,-26.161 v 0 c 0.721,-4.822 1.115,-9.655 1.178,-14.484 v 0 c 0.129,-9.518 -1.015,-19.03 -3.427,-28.415 v 0 c -2.887,-11.245 -7.459,-21.771 -13.627,-31.398 v 0 h 9.621 c 1.351,2.341 2.621,4.725 3.804,7.156 v 0 c 2.286,4.675 4.254,9.513 5.897,14.494 v 0 c 0.838,2.529 1.593,5.101 2.26,7.706 v 0 c 3.91,15.217 4.723,30.747 2.415,46.156 v 0 c -1.287,8.587 -3.504,16.928 -6.63,24.946 v 0 z"/></g></g></g></g><g transform="matrix(1.6682821,0,0,1.6682821,-638.74733,-2354.5763)" id="g976"><g clip-path="url(#clipPath982)" id="g978"><g transform="translate(608.6151,1515.3892)" id="g984"><path id="path986" style="fill:#291f6c;fill-opacity:1;fill-rule:nonzero;stroke:none" d="m 0,0 c 5.179,4.577 9.901,9.658 14.13,15.204 8.67,11.365 14.884,24.209 18.473,38.178 3.588,13.967 4.336,28.217 2.217,42.354 -0.531,3.542 -1.235,7.04 -2.111,10.487 h 11.265 c 0.668,-2.924 1.229,-5.88 1.675,-8.867 1.585,-10.583 1.716,-21.22 0.4,-31.778 C 45.425,60.582 44.477,55.602 43.207,50.656 39.252,35.261 32.4,21.1 22.835,8.563 20.563,5.584 18.163,2.729 15.639,0 Z"/></g></g></g><g transform="matrix(1.6682821,0,0,1.6682821,-638.74733,-2354.5763)" id="g988"><g clip-path="url(#clipPath994)" id="g990"><g id="g996"><g id="g998"/><g mask="url(#mask1014)" id="g1026"><g id="g1028"><path id="path1040" style="fill:url(#linearGradient1038);stroke:none" d="m 428.318,1615.846 c -1.724,-2.329 -3.356,-4.713 -4.889,-7.154 v 0 c -6.197,-9.853 -10.807,-20.594 -13.75,-32.045 v 0 c -3.8,-14.788 -4.588,-29.879 -2.346,-44.852 v 0 c 0.205,-1.369 0.433,-2.73 0.69,-4.087 v 0 h 3.648 c -0.274,1.433 -0.52,2.879 -0.736,4.33 v 0 c -2.209,14.755 -1.432,29.627 2.313,44.201 v 0 c 1.596,6.209 3.687,12.203 6.265,17.957 v 0 c 3.431,7.668 7.721,14.909 12.836,21.65 v 0 z"/></g></g></g></g></g><g transform="matrix(1.6682821,0,0,1.6682821,-638.74733,-2354.5763)" id="g1042"><g id="g1044"><g id="g1050"><g id="g1052"><path id="path1066" style="fill:url(#linearGradient1064);stroke:none" d="m 430.411,1615.846 c -1.351,-2.34 -2.621,-4.725 -3.804,-7.154 v 0 c -2.286,-4.676 -4.254,-9.514 -5.897,-14.496 v 0 c -0.838,-2.529 -1.593,-5.099 -2.26,-7.706 v 0 c -3.91,-15.217 -4.723,-30.745 -2.415,-46.154 v 0 c 1.287,-8.588 3.504,-16.929 6.63,-24.947 v 0 h 8.863 c -3.546,8.361 -6.016,17.115 -7.372,26.162 v 0 c -0.721,4.82 -1.116,9.655 -1.178,14.483 v 0 c -0.129,9.518 1.015,19.031 3.427,28.414 v 0 c 2.887,11.246 7.459,21.771 13.627,31.398 v 0 z"/></g></g></g></g><g transform="matrix(1.6682821,0,0,1.6682821,-638.74733,-2354.5763)" id="g1068"><g clip-path="url(#clipPath1074)" id="g1070"><g transform="translate(471.385,1621.6117)" id="g1076"><path id="path1078" style="fill:#291f6c;fill-opacity:1;fill-rule:nonzero;stroke:none" d="m 0,0 c -5.179,-4.577 -9.901,-9.658 -14.131,-15.203 -8.669,-11.366 -14.883,-24.21 -18.472,-38.179 -3.588,-13.967 -4.336,-28.217 -2.217,-42.353 0.531,-3.543 1.235,-7.041 2.111,-10.488 h -11.265 c -0.668,2.924 -1.229,5.88 -1.675,8.867 -1.585,10.583 -1.716,21.221 -0.4,31.779 0.624,4.995 1.572,9.975 2.842,14.921 3.955,15.395 10.807,29.556 20.371,42.093 2.273,2.979 4.673,5.834 7.197,8.563 z"/></g></g></g></g></svg>