<?xml version="1.0" encoding="UTF-8" standalone="no"?>
<!-- Created with Inkscape (http://www.inkscape.org/) -->

<svg
   xmlns:dc="http://purl.org/dc/elements/1.1/"
   xmlns:cc="http://creativecommons.org/ns#"
   xmlns:rdf="http://www.w3.org/1999/02/22-rdf-syntax-ns#"
   xmlns:svg="http://www.w3.org/2000/svg"
   xmlns="http://www.w3.org/2000/svg"
   xmlns:inkscape="http://www.inkscape.org/namespaces/inkscape"
   version="1.1"
   width="912.65002"
   height="456.38751"
   id="svg2"
   xml:space="preserve"><metadata
     id="metadata8"><rdf:RDF><cc:Work
         rdf:about=""><dc:format>image/svg+xml</dc:format><dc:type
           rdf:resource="http://purl.org/dc/dcmitype/StillImage" /></cc:Work></rdf:RDF></metadata><defs
     id="defs6"><clipPath
       id="clipPath42"><path
         d="m 2869.48,3085.11 -134.54,-522.67 2254.48,492.72 -2119.94,29.95 z"
         inkscape:connector-curvature="0"
         id="path44" /></clipPath><linearGradient
       x1="0"
       y1="0"
       x2="1"
       y2="0"
       id="linearGradient46"
       gradientUnits="userSpaceOnUse"
       gradientTransform="matrix(225.449,0,0,-225.449,273.494,282.378)"
       spreadMethod="pad"><stop
         id="stop48"
         style="stop-color:#fabb29;stop-opacity:1"
         offset="0" /><stop
         id="stop50"
         style="stop-color:#f36432;stop-opacity:1"
         offset="1" /></linearGradient><clipPath
       id="clipPath58"><path
         d="m 2227.4,2517.68 -150.97,-624.45 2920.51,609.45 -2769.54,15 z"
         inkscape:connector-curvature="0"
         id="path60" /></clipPath><linearGradient
       x1="0"
       y1="0"
       x2="1"
       y2="0"
       id="linearGradient62"
       gradientUnits="userSpaceOnUse"
       gradientTransform="matrix(292.052,0,0,-292.052,207.643,220.546)"
       spreadMethod="pad"><stop
         id="stop64"
         style="stop-color:#fabb29;stop-opacity:1"
         offset="0" /><stop
         id="stop66"
         style="stop-color:#f36432;stop-opacity:1"
         offset="1" /></linearGradient><clipPath
       id="clipPath74"><path
         d="M 2652.73,1972.68 2490,1445.72 l 2365.19,512.01 -2202.46,14.95 z"
         inkscape:connector-curvature="0"
         id="path76" /></clipPath><linearGradient
       x1="0"
       y1="0"
       x2="1"
       y2="0"
       id="linearGradient78"
       gradientUnits="userSpaceOnUse"
       gradientTransform="matrix(236.519,0,0,-236.519,249,170.92)"
       spreadMethod="pad"><stop
         id="stop80"
         style="stop-color:#fabb29;stop-opacity:1"
         offset="0" /><stop
         id="stop82"
         style="stop-color:#f36432;stop-opacity:1"
         offset="1" /></linearGradient></defs><g
     transform="matrix(1.25,0,0,-1.25,0,456.3875)"
     id="g10"><g
       transform="scale(0.1,0.1)"
       id="g12"><path
         d="m 110.074,646.23 170.606,0 -112.821,-481.589 517.352,0 -38.512,-159.60975 -509.109,0 C 137.59,5.03125 0,5.05078 0,172.91 l 110.074,473.32"
         inkscape:connector-curvature="0"
         id="path14"
         style="fill:#284577;fill-opacity:1;fill-rule:nonzero;stroke:none" /><path
         d="M 847.582,648.988 734.758,175.66 c 0,0 -13.762,-148.5897 118.328,-167.85141 l 547.634,0 140.34,638.42141 -162.35,0 -115.59,-487.07 -363.257,0 115.587,489.11 -167.868,0.718"
         inkscape:connector-curvature="0"
         id="path16"
         style="fill:#284577;fill-opacity:1;fill-rule:nonzero;stroke:none" /><path
         d="m 1637.05,649.641 464.66,0 c 0,0 167.39,13.25 196.03,-107.891 0,0 57.24,-116.691 -165.19,-202.602 l -380.98,-178.378 453.67,0 L 2170,0 1678.87,0 c 0,0 -193.78,13.2188 -154.14,171.789 0,0 -15.4,68.289 167.37,134.332 l 378.77,178.399 -475.67,0 41.85,165.121"
         inkscape:connector-curvature="0"
         id="path18"
         style="fill:#284577;fill-opacity:1;fill-rule:nonzero;stroke:none" /><path
         d="m 2746.99,488.891 -83.7,-330.321 365.59,0 74.87,332.551 -356.76,-2.23 z m 336.94,156.379 c 223.54,11.019 202.61,-151.95 202.61,-151.95 L 3207.28,151.969 C 3136.8,-26.4297 2918.76,4.42188 2918.76,4.42188 l -473.48,0 156.37,643.04712 482.28,-2.199"
         inkscape:connector-curvature="0"
         id="path20"
         style="fill:#284577;fill-opacity:1;fill-rule:nonzero;stroke:none" /><path
         d="m 4110.18,651.871 -37.43,-160.75 -519.73,0 -81.48,-323.781 526.33,0 -30.79,-160.73844 -546.22,0 c 0,0 -151.94,8.83984 -114.5,165.18744 l 99.11,389.789 c 0,0 19.83,92.492 187.19,92.492 l 517.52,-2.199"
         inkscape:connector-curvature="0"
         id="path22"
         style="fill:#284577;fill-opacity:1;fill-rule:nonzero;stroke:none" /><path
         d="m 3597.07,400.84 458.07,0 -30.8,-129.961 -460.32,0 33.05,129.961"
         inkscape:connector-curvature="0"
         id="path24"
         style="fill:#284577;fill-opacity:1;fill-rule:nonzero;stroke:none" /><path
         d="m 4191.31,646.039 170.62,0 -112.86,-481.59 517.4,0 -38.55,-159.58962 -509.1,0 c 0,0 -137.55,0.01953 -137.55,167.85962 l 110.04,473.32"
         inkscape:connector-curvature="0"
         id="path26"
         style="fill:#284577;fill-opacity:1;fill-rule:nonzero;stroke:none" /><path
         d="m 5715.69,651.871 -41.84,-160.75 -504.34,0 -26.41,-92.512 365.58,-4.39 c 0,0 158.56,19.793 110.11,-147.559 L 5576.91,88.0781 c 0,0 -39.62,-85.88669 -167.34,-85.88669 l -532.94,8.82029 39.59,149.7583 499.94,0 30.83,99.109 -383.16,0 c 0,0 -125.56,2.211 -83.69,178.383 0,0 11.02,215.808 191.59,215.808 l 543.96,-2.199"
         inkscape:connector-curvature="0"
         id="path28"
         style="fill:#284577;fill-opacity:1;fill-rule:nonzero;stroke:none" /><path
         d="M 5795.27,648.41 5682.46,175.078 c 0,0 -13.79,-148.6092 118.3,-167.85925 l 547.62,0 162.29,638.46125 -171.79,0 -116.69,-487.11 -374.66,0 115.6,489.11 -167.86,0.73"
         inkscape:connector-curvature="0"
         id="path30"
         style="fill:#284577;fill-opacity:1;fill-rule:nonzero;stroke:none" /><path
         d="m 6607.58,4.42188 121.13,513.14812 391.99,0 -39.6,-165.179 -314.97,0 -46.25,-158.571 251.08,0 46.23,-182.7692 189.43,0 -79.33,200.3792 c 0,0 81.52,-8.821 114.55,74.871 l 57.26,213.648 c 0,0 28.63,162.942 -125.54,151.942 l -466.87,0 c 0,0 -110.15,-2.2 -145.37,-125.532 L 6440.21,6.62109 6607.58,4.42188"
         inkscape:connector-curvature="0"
         id="path32"
         style="fill:#284577;fill-opacity:1;fill-rule:nonzero;stroke:none" /><path
         d="m 5332.94,2371.18 c 0,-698.37 -757.12,-1264.47 -1690.92,-1264.47 -933.79,0 -1690.9,566.1 -1690.9,1264.47 0,698.33 757.11,1264.42 1690.9,1264.42 933.8,0 1690.92,-566.09 1690.92,-1264.42"
         inkscape:connector-curvature="0"
         id="path34"
         style="fill:#284577;fill-opacity:1;fill-rule:nonzero;stroke:none" /><path
         d="m 5332.94,2371.18 c 0,-698.37 -757.12,-1264.47 -1690.92,-1264.47 -933.79,0 -1690.9,566.1 -1690.9,1264.47 0,698.33 757.11,1264.42 1690.9,1264.42 933.8,0 1690.92,-566.09 1690.92,-1264.42 z"
         inkscape:connector-curvature="0"
         id="path36"
         style="fill:none;stroke:#284476;stroke-width:31.0135994;stroke-linecap:butt;stroke-linejoin:miter;stroke-miterlimit:4;stroke-opacity:1;stroke-dasharray:none" /><g
         id="g38"><g
           clip-path="url(#clipPath42)"
           id="g40"><path
             d="m 2869.48,3085.11 -134.54,-522.67 2254.48,492.72 -2119.94,29.95"
             inkscape:connector-curvature="0"
             id="path52"
             style="fill:url(#linearGradient46);fill-opacity:1;fill-rule:nonzero;stroke:none" /></g></g><g
         id="g54"><g
           clip-path="url(#clipPath58)"
           id="g56"><path
             d="m 2227.4,2517.68 -150.97,-624.45 2920.51,609.45 -2769.54,15"
             inkscape:connector-curvature="0"
             id="path68"
             style="fill:url(#linearGradient62);fill-opacity:1;fill-rule:nonzero;stroke:none" /></g></g><g
         id="g70"><g
           clip-path="url(#clipPath74)"
           id="g72"><path
             d="M 2652.73,1972.68 2490,1445.72 l 2365.19,512.01 -2202.46,14.95"
             inkscape:connector-curvature="0"
             id="path84"
             style="fill:url(#linearGradient78);fill-opacity:1;fill-rule:nonzero;stroke:none" /></g></g></g></g></svg>