<svg version="1.1" id="Layer_1" xmlns:x="ns_extend;" xmlns:i="ns_ai;" xmlns:graph="ns_graphs;" xmlns="http://www.w3.org/2000/svg" xmlns:xlink="http://www.w3.org/1999/xlink" x="0px" y="0px" viewBox="0 0 250.5 52" style="enable-background:new 0 0 250.5 52;" xml:space="preserve">
 <style type="text/css">
  .st0{fill:#020A19;}
 </style>
 <metadata>
  <sfw xmlns="ns_sfw;">
   <slices>
   </slices>
   <sliceSourceBounds bottomLeftOrigin="true" height="52" width="250.5" x="74.9" y="-226.8">
   </sliceSourceBounds>
  </sfw>
 </metadata>
 <g>
  <g id="hex__logo_Layer_1">
  </g>
  <g id="hex__logo_art_2">
   <g id="hex__logo">
    <g>
     <path class="st0" d="M17.2,18c-0.8-0.2-2.9-0.4-5.2,0.2c-0.8,0.2-2.5,0.6-4.1,1.4V4.6c0-2.3-1.9-3.9-3.9-3.9S0,2.5,0,4.6v43.1
					c0,2.3,1.9,3.9,3.9,3.9c2.3,0,3.9-1.9,3.9-3.9V32.1l0,0c0.4-1.4,0.8-2.5,1.7-3.5c0.4-0.6,1.9-2.1,4.1-2.3c3.3-0.4,5.6,1.4,6,1.9
					c2.5,2.3,2.5,5.2,2.5,5.6v14.7c0,1.9,1.7,3.5,3.7,3.5l0,0c2.1,0,3.7-1.7,3.7-3.5V32.9c0-3.1-1-5.4-1.7-6.4
					C26.1,21.7,21.7,18.6,17.2,18z">
     </path>
     <path class="st0" d="M161.9,17.6c-0.6,0-1.7-0.2-2.7,0c-5.8,0.4-9.9,4.1-10.8,5c-4.8,4.8-5,10.8-5,11.8c0,1.9,0.2,6.8,3.9,11.2
					c2.7,3.1,6.8,5.2,11.8,5.6c0.6,0,1.2,0.2,2.3,0.2l0,0l0,0l0,0c7-0.2,11.8-5.4,12-5.6c0.6-0.6,3.9-5,3.9-11.2
					C177.6,25.7,170.8,18.2,161.9,17.6z M169.2,34.8c-0.2,4.8-4.3,8.5-9.1,8.3c-4.8-0.2-8.7-4.1-8.5-8.9c0.2-4.8,4.3-8.5,9.1-8.3
					C165.6,25.9,169.4,30,169.2,34.8z">
     </path>
     <path class="st0" d="M123.8,18c-3.1,0-6,0.8-8.5,2.5c-0.6-1.7-2.1-2.7-3.9-2.7c-2.3,0-4.1,1.9-4.1,4.1v25.3
					c0,2.3,1.9,4.1,4.1,4.1c0.2,0,0.2,0,0.4,0s0.2,0,0.4,0c1.9,0,3.5-1.4,3.5-3.5V33.5c0-0.2,0.2-0.6,0.4-1.2c0-0.2,0.4-1.4,0.6-2.1
					c0.8-1.9,2.3-2.9,2.7-3.1c1.7-1,3.1-1.2,3.5-1.2c1.2,0,2.1,0.2,2.7,0.2c0.4,0.2,2.1,0.6,3.3,1.9c2.1,2.1,2.5,4.8,2.5,5.4
					c0,4.8,0,9.5,0,14.3c0,0.4,0.2,1.4,1.2,2.3c1.2,1,2.5,1,2.7,1l0,0c1.9,0,3.5-1.4,3.5-3.5V32.3c-0.2-1.7-0.6-4.3-2.3-7
					C136.2,24.8,131.9,18.2,123.8,18z">
     </path>
     <path class="st0" d="M244.7,21.3c-3.9-3.1-8.5-3.3-9.1-3.3s-2.9,0-5.8,0.8c-3.5,1.2-5.8,3.1-6.4,3.7c-5,4.6-5.2,10.8-5.4,11.8
					c0,1.4-0.2,6.6,3.5,11.4c3.9,4.8,9.1,5.6,10.6,5.8c2.3,0.4,4.6,0.2,5.2,0c1-0.2,2.7-0.4,5-1.2c2.9-1.2,4.8-2.9,6-4.3
					c0.6-1.7,0.6-3.3-0.4-4.3c-0.8-0.8-1.9-1.2-2.1-1.2c-1.9-0.4-3.5,0.6-3.7,0.8c-0.4,0.4-1,1-1.9,1.4c-1.7,1-3.3,1-4.3,1
					c-0.8,0-3.7,0.2-6.2-1.9c-2.3-1.7-3.1-3.7-3.5-4.6h24.2C251.1,31.1,249.1,24.8,244.7,21.3z M229.4,27.7c2.3-1.4,4.3-1.7,5.4-1.7
					c0.8,0,2.9,0,5,1.4c1.2,0.8,1.9,1.9,2.5,2.7h-15.1C227.5,29.4,228.4,28.6,229.4,27.7z">
     </path>
     <path class="st0" d="M79.1,33.3c2.1-2.1,3.9-4.1,6-6.2c-2.5-2.5-5-5-7.7-7.5c-1.7-1.7-4.3-1.7-6,0c-1.7,1.7-1.7,4.3,0,6
					C73.9,28.2,76.4,30.6,79.1,33.3z">
     </path>
     <path class="st0" d="M101.7,18.8c-1.7-1.7-4.3-1.4-5.8,0.2L71.4,44.5c-1.7,1.7-1.4,4.3,0.2,5.8c1.7,1.7,4.3,1.4,5.8-0.2l8.9-9.3
					l9.1,9.1c1.7,1.7,4.3,1.7,6,0c1.7-1.7,1.7-4.3,0-6l-9.1-9.3l9.5-9.9C103.5,23,103.3,20.5,101.7,18.8z">
     </path>
     <path class="st0" d="M210.6,0c-2.3,0-4.1,1.9-4.1,4.1v16.6c-2.3-1.7-5.2-2.7-8.1-2.9l0,0c-0.6,0-1.7-0.2-2.7,0
					c-5.8,0.4-9.7,4.1-10.6,5c-5,4.6-5,10.6-5,11.6c0,1.9,0.2,6.8,3.9,11.2c2.7,3.1,6.6,5.2,11.6,5.6c0.6,0,1.2,0.2,2.3,0.2l0,0l0,0
					l0,0c3.7-0.2,6.6-1.7,8.7-3.1c0.4,1.7,2.1,2.9,3.9,2.9c2.3,0,4.1-1.9,4.1-4.1V3.9C214.5,1.9,212.6,0,210.6,0z M205.8,34.8
					c-0.2,5-4.3,8.9-9.3,8.7c-5-0.2-8.7-4.3-8.5-9.3c0.2-5,4.3-8.9,9.3-8.7C202.3,25.7,206,29.8,205.8,34.8z">
     </path>
     <path class="st0" d="M60.7,21.5c-3.9-3.1-8.5-3.3-9.1-3.3c-0.6,0-2.9,0-5.8,0.8c-3.5,1.2-5.8,3.1-6.4,3.7
					c-5,4.6-5.2,10.8-5.4,11.8c0,1.4-0.2,6.6,3.5,11.4c3.9,4.8,9.1,5.6,10.6,5.8c2.3,0.4,4.6,0.2,5.2,0c1-0.2,2.7-0.4,5-1.2
					c2.9-1.2,4.8-2.9,6-4.3c0.6-1.7,0.6-3.3-0.4-4.3c-0.8-0.8-1.9-1.2-2.1-1.2c-1.9-0.4-3.5,0.6-3.7,0.8c-0.4,0.4-1,1-1.9,1.4
					c-1.7,1-3.3,1-4.3,1c-0.8,0-3.7,0.2-6.2-1.9c-2.3-1.7-3.1-3.7-3.5-4.6h24.2C67.1,31.1,65,25.1,60.7,21.5z M45.3,28
					c2.3-1.4,4.3-1.7,5.4-1.7c0.8,0,2.9,0,5,1.4c1.2,0.8,1.9,1.9,2.5,2.7H43.1C43.5,29.6,44.3,28.6,45.3,28z">
     </path>
    </g>
   </g>
  </g>
 </g>
</svg>