<?xml version="1.0" encoding="UTF-8"?>
<svg width="163px" height="60px" viewBox="0 0 163 60" version="1.1" xmlns="http://www.w3.org/2000/svg" xmlns:xlink="http://www.w3.org/1999/xlink">
    <title>Logo PFX Editavel</title>
    <defs>
        <linearGradient x1="1.00754746%" y1="50.0005533%" x2="98.9963305%" y2="50.0005533%" id="linearGradient-1">
            <stop stop-color="#0098DA" offset="0%"></stop>
            <stop stop-color="#1F5E9F" offset="22%"></stop>
            <stop stop-color="#0098DA" offset="44%"></stop>
            <stop stop-color="#1F5E9F" offset="73%"></stop>
            <stop stop-color="#1F5E9F" offset="100%"></stop>
        </linearGradient>
        <linearGradient x1="7.0133469%" y1="50.0082263%" x2="93.0218715%" y2="50.0082263%" id="linearGradient-2">
            <stop stop-color="#A9ABAE" offset="0%"></stop>
            <stop stop-color="#FEFEFE" offset="100%"></stop>
        </linearGradient>
        <linearGradient x1="2.01460752%" y1="49.989819%" x2="98.0098449%" y2="49.989819%" id="linearGradient-3">
            <stop stop-color="#A9ABAE" offset="0%"></stop>
            <stop stop-color="#FEFEFE" offset="100%"></stop>
        </linearGradient>
        <linearGradient x1="5.02691264%" y1="50.0046419%" x2="95.0104464%" y2="50.0046419%" id="linearGradient-4">
            <stop stop-color="#A9ABAE" offset="0%"></stop>
            <stop stop-color="#FEFEFE" offset="100%"></stop>
        </linearGradient>
    </defs>
    <g id="PFX-Details" stroke="none" stroke-width="1" fill="none" fill-rule="evenodd">
        <g id="Tablex" transform="translate(-498.000000, -61.000000)">
            <g id="Logo-PFX-Editavel" transform="translate(498.000000, 61.000000)">
                <g id="Group">
                    <path d="M52.4622748,13.0196134 C49.9573376,24.0898201 33.7156475,31.533928 24.6857527,34.0590664 C24.6958533,34.3216808 25.0089704,35.2408311 25.0998754,35.6044511 C25.1806799,35.877166 25.5442998,37.0185285 25.5139981,37.2306402 L22.0495083,38.048785 C21.9586033,38.0689861 21.8777989,38.0790867 21.7767933,38.0992878 L21.5242795,38.1901927 L23.3322786,43.8465027 C23.5645913,43.8364021 24.0393173,43.7252961 24.2918311,43.6646927 L26.2210369,43.2202684 C26.4533496,43.1596651 26.9583773,43.0081568 27.1603883,42.9980562 C27.2209917,43.25057 27.4432038,44.1697204 27.5644105,44.3111282 C28.5744658,44.0384132 29.3219068,43.8061005 30.2814594,43.4929833 C30.5642749,43.4020783 30.9379953,43.25057 31.2208108,43.2000673 L32.1096595,46.9877748 C32.3621734,47.0079759 35.0186189,45.8969151 35.4529427,45.694904 C35.5438477,45.6545018 35.4731439,45.6848034 35.5135461,45.6343007 C35.4428422,45.1898763 35.3519372,44.8262564 35.2711328,44.3717315 C35.22063,44.088916 35.0287195,43.3212739 35.0489206,43.1091623 C35.5640488,42.8768496 36.2003837,42.5940341 36.7155119,42.3314197 C36.9882269,42.2001125 38.1497905,41.5637776 38.3214999,41.533476 C38.3922038,41.9374981 38.705321,43.8465027 38.6952204,44.1091171 C38.4427066,44.2101226 38.1497905,44.3919326 37.8972767,44.5131392 L35.5337472,45.6747029 C35.6044511,46.2403339 35.7559594,46.9271715 35.877166,47.4928025 C35.9478699,47.8261208 36.2104843,48.9674833 36.1902832,49.2603994 C35.6145516,49.472511 33.3823293,50.4825663 32.9682066,50.5330691 C32.8874022,50.3815608 32.4328773,48.3210479 32.3217712,47.866523 L32.1601623,47.1594842 C32.099559,47.0079759 32.1702629,47.0382776 31.9682518,47.0584787 C31.7460396,47.1998865 29.0794935,48.0180313 28.705773,48.0786346 C28.5542647,48.0988357 28.5946669,48.1291374 28.5946669,48.2907462 C28.705773,48.4018523 28.8067786,48.90688 28.8471808,49.0684889 C28.9683874,49.4826115 29.453214,51.3411134 29.5239179,51.4522195 L29.5340184,51.5431245 L29.6451245,51.5633256 C29.8269345,51.5633256 30.5541743,51.3209123 30.8369898,51.2401079 C30.9480959,51.2098062 31.0895036,51.1492029 31.2107103,51.1593034 L31.2410119,51.1593034 C31.3420175,51.169404 32.0288551,54.0177601 32.0187546,54.1389667 C32.0793579,54.2096706 32.0793579,54.2500728 32.099559,54.3510783 C32.4631789,54.2702739 35.0085184,53.3713246 35.1499261,53.2602186 L35.2812333,53.159213 C35.2913339,52.8258948 34.8873118,51.5128228 34.8671106,51.0380968 C35.7256577,50.7148791 37.5336568,49.856332 38.3619022,49.4220082 L39.2002481,48.9674833 C39.2305498,48.9573828 39.4224603,48.8462767 39.4325608,48.8765783 C39.4426614,48.8866789 39.4527619,48.8765783 39.4628625,48.8765783 L39.7961808,51.0077951 C39.9678902,50.9572924 40.9880461,50.3209575 41.1799566,50.1997508 C41.3819676,50.0684437 42.3617213,49.381606 42.5132296,49.3614049 L42.7657435,51.4320184 C42.1496097,51.8057389 41.5536771,52.2703643 40.8365378,52.6945876 C40.6345267,52.8056936 40.3517112,53.0077047 40.1598007,53.0784086 C40.1193985,53.1390119 40.1395996,53.0077047 40.129499,53.1895147 C40.129499,53.2804197 40.129499,53.2299169 40.1395996,53.2905202 L40.4325156,55.0682506 C40.7961355,55.0783182 43.9475082,52.7652914 44.4626365,52.3410682 C44.7858542,52.0582527 45.0888708,51.8057389 45.3716863,51.5734261 C45.98782,51.0582979 46.5433505,50.4623652 47.1089815,49.8967342 C48.4927573,48.4927573 49.7048237,46.8362665 50.7047785,44.9777647 C51.5330239,43.4424806 52.118856,41.8364926 52.4723754,39.8971863 C52.8157942,37.9679806 52.6541853,35.3721383 52.6440848,33.2914243 C52.6440848,31.4834252 52.6440848,13.1105184 52.4622748,13.0196134 Z M43.5131844,46.1797306 L43.2808717,43.8768044 C43.1899667,43.8667038 42.4425258,44.4323348 42.2809169,44.5434409 L40.1901023,45.8868145 C39.9274879,46.0383228 39.2608514,46.3918422 39.1093431,46.5332499 L39.4527619,48.7957739 C39.8264824,48.72507 43.0687601,46.5938532 43.5131844,46.1797306 Z M34.745904,41.8061909 C34.7560046,41.6344815 34.3014797,39.3820581 34.2307758,39.0386392 C34.0085636,39.0790415 33.5035359,39.3214547 33.3116254,39.3921586 C33.0086088,39.5234658 32.7156928,39.6446724 32.4227767,39.7557785 C32.1197601,39.8769852 31.7864418,39.9981918 31.5036263,40.0991974 C31.2713136,40.1800018 30.786487,40.3921134 30.5642749,40.4224151 L29.8976383,37.5437573 C29.6653256,37.574059 28.3017509,38.048785 27.9482315,38.1598911 C27.6250138,38.2507961 26.1604335,38.6447177 25.9887241,38.7356226 L26.7664667,41.5940793 C27.0492822,41.5536771 27.4432038,41.4122693 27.7260193,41.3314649 C28.049237,41.2405599 28.3623542,41.1496549 28.6754714,41.0587499 C29.0996946,40.9375433 30.2612583,40.5032195 30.584476,40.4628173 L31.2107103,43.1293634 L34.745904,41.8061909 Z M33.6449437,36.0892776 C33.6348431,35.8569649 33.0793127,33.0591116 33.0389105,32.9783071 L30.1602527,34.0691669 C29.9380405,34.1499713 29.3522084,34.3317813 29.180499,34.4327868 C29.1905996,34.7964068 29.4431134,35.5640488 29.5239179,35.9781715 L29.7966328,37.1094335 C29.8067333,37.1801374 29.8168339,37.2407407 29.837035,37.3114446 L29.8774372,37.4124501 C29.8774372,37.4225507 29.8875378,37.4326512 29.8875378,37.4427518 L29.92794,37.5033551 C30.4531688,37.3821485 33.1096143,36.2912887 33.6449437,36.0892776 Z M40.4426162,32.6045867 C40.2810073,32.6550894 39.1093431,33.3823293 38.8568293,33.523737 L37.2104391,34.4024852 C37.2306402,34.7156023 37.6144612,37.2104391 37.6851651,37.3417463 C38.0184833,37.2811429 40.0991974,35.9781715 40.6244261,35.6852555 C40.7759344,35.5943505 40.8365378,35.5943505 40.8062361,35.3721383 C40.7557333,34.9479151 40.51332,32.7358939 40.4426162,32.6045867 Z M28.5946669,48.2907462 C28.5946669,48.1291374 28.5542647,48.0988357 28.705773,48.0786346 L28.5946669,48.0887352 C28.4229575,47.7958191 28.0593376,45.9676189 27.8876282,45.6444012 C27.6856171,45.6444012 25.766512,46.1595294 25.1503782,46.2706355 C24.8978644,46.3211383 24.4231383,46.4019427 24.2009262,46.4726466 C24.2110267,46.7857638 24.9079649,48.5028579 24.9584677,48.9371817 C23.887809,49.0684889 22.463631,49.4321088 21.3525701,49.4523099 L20.4839225,47.0584787 C20.0697998,47.0079759 19.1708505,47.1695848 18.7163256,47.1998865 C18.1001919,47.2402887 17.4840581,47.2402887 16.8679243,47.2907914 C16.8780249,47.5231042 17.6658681,49.2199972 17.8072758,49.6947232 C18.9688395,49.7452259 20.2415092,49.5331143 21.332369,49.4826115 L22.2111171,51.7754372 C22.6555415,51.7653366 25.4735959,51.3815156 25.7059086,51.260309 C25.6655064,50.9673929 25.4533948,50.4118625 25.3523893,50.0987453 C25.2917859,49.9169353 25.2311826,49.7149243 25.1705793,49.5331143 L25.0291715,48.9371817 C25.4634953,48.7856734 26.3119418,48.6846678 26.8270701,48.5533606 C27.2916955,48.4523551 28.1704437,48.159439 28.6047675,48.1392379 L28.5946669,48.2907462 Z M21.4939778,38.1699916 L20.5041236,35.0489206 C20.201107,35.0590212 19.3728616,35.2408311 19.0294428,35.311535 C18.2112979,35.4731439 16.7871199,35.6650544 15.9083717,35.7761605 C15.3730424,35.8569649 14.8478136,35.8872666 14.3225848,35.9781715 L15.4841485,39.0285387 C17.5345609,38.8871309 19.5647721,38.4932094 21.4939778,38.1699916 Z M40.1395996,53.2905202 C40.129499,53.2299169 40.129499,53.2804197 40.129499,53.1895147 C40.1395996,53.0077047 40.1193985,53.1390119 40.1598007,53.0784086 C40.0890968,53.0380064 39.8163819,51.0885996 39.8163819,51.0582979 C39.6850747,51.0885996 37.9275784,52.027951 37.6043606,52.1794593 C37.2104391,52.3612693 36.8872213,52.5329787 36.4831992,52.7046881 C36.2205848,52.8056936 35.5135461,53.1794141 35.2812333,53.159213 L35.1499261,53.2602186 C35.3721383,53.2299169 35.1600267,53.2299169 35.3216356,53.2703191 L35.7357582,55.2803293 C35.1802278,55.4318376 33.3722287,56.2297813 32.6449889,56.3812896 C32.5944861,56.4216918 32.6247878,56.3610885 32.6045867,56.4822951 C32.6146872,56.4822951 32.6247878,56.5125968 32.6247878,56.5024962 C32.6348883,56.5024962 32.6449889,56.5226973 32.6449889,56.5327979 L32.8773016,57.3913449 C32.958106,57.6943615 33.0389105,58.0074787 33.1096143,58.3104953 C33.523737,58.2902942 37.301344,56.8055128 37.6245618,56.552999 L37.2609418,54.6237933 C37.4124501,54.4924861 38.4225055,54.0379612 38.6851199,53.906654 C39.1396448,53.6743412 39.6446724,53.341023 40.0890968,53.1491125 C40.1092979,53.1794141 40.129499,53.1087103 40.1395996,53.2905202 Z M32.6045867,56.4822951 C32.6247878,56.3610885 32.5944861,56.4216918 32.6449889,56.3812896 C32.4227767,56.1489769 32.2914695,54.5530894 32.0389557,54.3712794 C31.5945313,54.6136927 29.0188902,55.1490221 28.8168791,55.2702287 C28.8269797,55.4823403 29.1501974,56.4216918 29.2512029,56.7651106 L29.362309,57.1489316 C29.3825101,57.3408422 29.3724095,57.209535 29.3421079,57.2600377 L27.7765221,57.593356 L28.3724548,59.4821595 C28.705773,59.4720589 31.3420175,58.8862268 31.533928,58.7751208 L31.0289003,56.8863173 L32.574285,56.4115912 C32.6247878,56.4519935 32.6146872,56.3812896 32.6045867,56.4822951 Z M29.6451245,51.5633256 L29.5340184,51.5431245 L29.5239179,51.4522195 L29.544119,51.6239289 C29.1501974,51.6946328 28.6855719,51.82594 28.3017509,51.9269455 C27.3623994,52.1592582 25.3018865,52.5632804 24.3928367,52.6743865 C24.362535,52.8258948 24.6554511,53.5632352 24.7160544,53.7450451 C24.8069594,53.997559 24.9786688,54.6035922 25.0897749,54.8056032 C25.4533948,54.8359049 28.3926559,54.2399722 28.9077841,54.108665 C29.2815046,54.0076595 29.7764317,53.8763523 30.1501522,53.8056484 C30.1198505,53.431928 29.5845212,51.8562416 29.5946217,51.6845322 C29.6047223,51.5936272 29.6047223,51.6239289 29.6451245,51.5633256 Z M16.5851088,41.917297 C16.5649077,41.7253865 15.8073662,39.8567841 15.6255562,39.3921586 L15.4639474,39.0386392 C14.1912777,39.1194437 12.9590101,39.1901475 11.6661393,39.2406503 C11.6661393,39.4022592 12.6761946,41.735487 12.8378035,42.0789058 C14.1003727,42.1092075 15.3427408,41.9677998 16.5851088,41.917297 Z M10.3126651,36.2205848 L6.61586254,36.1902832 C6.63606364,36.3417915 7.93903504,39.1194437 7.97943726,39.1396448 C8.15114667,39.2305498 11.2217149,39.2507509 11.605536,39.2305498 C11.5550332,39.0285387 10.3934695,36.3215904 10.3126651,36.2205848 Z M21.4131734,44.1697204 L20.4839225,41.4526715 C19.8980904,41.4728726 19.1708505,41.6546826 18.5749179,41.7051854 C17.938583,41.7657887 17.2416448,41.8869953 16.625511,41.9071964 C16.6558127,42.1597103 17.0194326,43.0081568 17.1305387,43.2909723 C17.3022481,43.7252961 17.4840581,44.1899215 17.6557675,44.6242453 C18.0496891,44.6444464 21.2010618,44.2808265 21.4131734,44.1697204 Z M0,35.2610322 C0.040402214,35.4226411 0.23231273,35.7256577 0.333318265,35.9276688 L1.37367527,37.8972767 C1.56558579,38.2608966 1.57568634,38.1699916 2.01001014,38.2709972 C2.26252398,38.3316005 2.55544003,38.3922038 2.81805442,38.4528071 C3.21197601,38.5538127 4.16142804,38.7457232 4.55534962,38.7659243 C4.51494741,38.5841143 3.40388653,36.4326964 3.23217712,36.0690765 C3.09076937,35.7660599 3.14127214,35.8468643 2.55544003,35.7458588 C2.27262454,35.695356 1.97970848,35.6448533 1.70699354,35.6044511 C1.27266974,35.5337472 0.242413284,35.2711328 0,35.2610322 Z M21.2818662,54.108665 C21.2919668,53.9369556 20.5748275,52.209761 20.4839225,51.937046 L17.0901365,52.0077499 C17.1002371,52.0885543 17.9183819,54.0177601 18.0092869,54.1490673 C19.0597444,54.1793689 20.2415092,54.1793689 21.2818662,54.108665 Z M24.4635406,58.0377804 C24.4736411,57.9266743 23.8575073,56.2398818 23.7666024,56.078273 L20.5243247,56.2297813 C20.494023,56.3610885 21.1707601,57.9165737 21.2616651,58.1690875 C21.6454861,58.2094898 22.4939326,58.1690875 22.9080553,58.1488864 C23.3928819,58.1286853 23.9686134,58.0781826 24.4635406,58.0377804 Z M7.04008578,46.3716411 C7.07038744,46.5130488 8.20164943,48.6543662 8.23195109,48.6745673 C8.37335884,48.7654722 10.8681956,49.2704999 11.1712122,49.2806005 C11.0702066,48.9775839 10.5348773,47.9473274 10.3227657,47.482702 C10.2419612,47.3210931 10.1308552,46.9877748 9.9894474,46.9271715 C9.74703412,46.8362665 8.8379843,46.735261 8.48446493,46.6645571 C8.20164943,46.6140544 7.25219741,46.35144 7.04008578,46.3716411 Z M10.2621623,50.1694492 C10.3025646,50.3512591 11.2318155,52.1996604 11.332821,52.3410682 C11.3732232,52.3713698 13.9488644,52.8359953 14.3023837,52.8258948 C14.2720821,52.6642859 13.6761494,51.4522195 13.5347417,51.1492029 C13.3933339,50.8360857 13.3731328,50.6744769 13.2014234,50.6340746 L11.7065415,50.4320636 C11.2520166,50.3613597 10.7065867,50.2098514 10.2621623,50.1694492 Z M2.29282564,41.8061909 L3.57559594,44.2202232 C3.67660147,44.381832 4.66645571,44.6444464 4.89876844,44.7151503 C5.18158394,44.8060553 6.10073431,45.0787702 6.3633487,45.0989713 L5.13108117,42.6546374 C5.01997508,42.5031291 4.65635516,42.4728274 4.46444464,42.4223247 C3.81800922,42.2708164 2.56554059,41.8566937 2.29282564,41.8061909 Z M19.6758782,58.1488864 C19.16075,58.1185848 18.6456217,58.0882831 18.1607952,58.0478809 C17.7062703,57.9973781 17.1204382,57.8862721 16.6760138,57.8862721 L17.5244603,59.7346733 C18.3830074,59.7952767 19.6657776,60.0275894 20.4738219,59.9972877 C20.4233192,59.7952767 19.7768837,58.2801936 19.6758782,58.1488864 Z M11.4944299,55.0480165 C11.5247315,55.1995248 12.1105636,56.3105857 12.2519714,56.5833007 C12.3630775,56.7853117 12.3529769,56.93682 12.6155913,57.0075239 C13.029714,57.11863 13.413535,57.2297361 13.8276577,57.3307416 C14.2215793,57.4216466 14.7771098,57.5731549 15.1609308,57.6034566 C15.1306291,57.411546 14.5750987,56.3206863 14.4235904,56.0176697 C14.2821826,55.7247536 14.3629871,55.7146531 14.0094677,55.6439492 C13.595345,55.5631447 13.1509206,55.4823403 12.736798,55.3712342 C12.3327758,55.2702287 11.9085526,55.1288209 11.4944299,55.0480165 Z M7.30270017,51.1189012 C7.35320294,51.3209123 7.71682287,51.9269455 7.84813006,52.1794593 L8.27235331,52.9673025 C8.35315774,53.1087103 8.33295663,53.1289114 8.48446493,53.1895147 C8.91878873,53.3814252 10.5045756,53.9470562 10.9186983,54.0177601 C10.8883967,53.8561512 10.1510563,52.4723754 9.97934685,52.1289566 C9.89854242,51.9774483 9.91874353,51.9875488 9.73693356,51.9269455 C9.33291142,51.8057389 8.90868818,51.6845322 8.50466604,51.553225 C8.12084501,51.4219178 7.67642065,51.2098062 7.30270017,51.1189012 Z" id="Shape" fill="url(#linearGradient-1)"></path>
                    <path d="M48.0988357,19.9485931 C46.9978754,10.9186983 36.5034003,7.49461069 27.6755166,8.87838652 C27.6553155,9.10059869 28.5845664,13.3024289 28.705773,13.9387638 L31.3420175,27.9684326 C31.5036263,28.8471808 31.7662407,29.9178394 31.8672463,30.786487 C39.6345719,27.6553155 46.2403339,22.6151393 48.0988357,19.9485931 Z" id="Path" fill="url(#linearGradient-2)"></path>
                    <path d="M51.9673477,11.2722177 C51.9269455,9.63592803 51.3815156,8.18144833 50.6239741,6.99968357 C49.7351254,5.61590774 48.5028579,4.48464575 47.0584787,3.54529427 C44.3919326,1.80799907 40.1699012,0.414122693 36.4023948,0 L36.8771208,4.07052306 C40.402214,4.94927121 43.1697656,5.3431928 46.1090267,7.93903504 C48.6745673,10.2116596 49.6947232,13.3529317 49.8159298,17.8577786 C50.9572924,16.3426955 52.027951,13.3024289 51.9673477,11.2722177 Z" id="Path" fill="url(#linearGradient-3)"></path>
                    <path d="M32.392475,4.33313745 L32.9480055,7.99963836 C36.8872213,8.27235331 39.7658791,8.77738098 43.2808717,11.0500055 C44.6444464,11.9287537 45.9575184,13.1509206 46.7958643,14.4437915 C47.9372269,16.2113884 48.2604446,17.4335553 48.5028579,19.5546716 C48.5129584,19.5647721 48.5331595,19.5647721 48.5533606,19.5647721 C48.7957739,19.2617555 49.0280866,18.9486383 49.2504652,18.6153201 C49.290701,7.63601844 41.9677998,4.84826568 32.392475,4.33313745 Z" id="Path" fill="url(#linearGradient-4)"></path>
                </g>
                <g id="Group" transform="translate(64.665652, 1.610861)" fill="#373435" fill-rule="nonzero">
                    <g transform="translate(0.000000, 6.963043)" id="Shape">
                        <path d="M8.07024083,35.2826992 L3.55271368e-15,35.2826992 L3.55271368e-15,2.66453526e-15 L14.221339,2.66453526e-15 C15.8452289,2.66453526e-15 17.4199101,0.344461499 18.8469649,1.0333845 C20.3232284,1.67309871 21.5534481,2.55885685 22.6360413,3.69065892 C23.7186346,4.82246098 24.555184,6.15109819 25.1948982,7.62736176 C25.8346124,9.10362533 26.1298651,10.6290977 26.1298651,12.2529876 C26.1298651,13.8768775 25.8346124,15.4515587 25.1948982,16.9278222 C24.555184,18.4040858 23.7186346,19.732723 22.6360413,20.8645251 C21.5534481,21.9963271 20.3232284,22.8820853 18.8469649,23.5217995 C17.4199101,24.2107225 15.8452289,24.5059752 14.221339,24.5059752 L8.07024083,24.5059752 L8.07024083,35.2826992 Z M14.2705478,16.4357344 C14.7626357,16.4357344 15.2055147,16.3373168 15.6976026,16.0912729 C16.1404817,15.8452289 16.5341519,15.5007674 16.8786134,15.1070972 C17.2230749,14.7134269 17.5183277,14.2705478 17.7643716,13.77846 C17.9612067,13.2863721 18.0596243,12.7942842 18.0596243,12.2529876 C18.0596243,11.7608997 17.9612067,11.2688119 17.7643716,10.776724 C17.5183277,10.2846362 17.2230749,9.79254832 16.8786134,9.39887804 C16.5341519,9.00520775 16.1404817,8.70995504 15.6976026,8.46391111 C15.2055147,8.21786719 14.7626357,8.07024083 14.2705478,8.07024083 L8.07024083,8.07024083 L8.07024083,16.4357344 L14.2705478,16.4357344 Z"></path>
                    </g>
                    <g transform="translate(16.834251, -0.000000)" id="Path">
                        <g transform="translate(-0.000000, 0.000000)">
                            <polygon points="33.8310401 21.2827997 33.8310401 28.8117439 20.9383382 28.8117439 20.9383382 42.2457424 12.8680974 42.2457424 12.8680974 6.96304315 36.3406881 6.96304315 36.3406881 14.4919873 20.9383382 14.4919873 20.9383382 21.2827997"></polygon>
                        </g>
                    </g>
                    <g transform="translate(48.804104, -0.000000)" id="Path">
                        <g transform="translate(-0.000000, 0.000000)">
                            <path d="M30.755491,23.2019424 C30.5586558,23.4971951 30.4110295,23.743239 30.3618207,23.989283 C30.3126119,24.1369093 30.3126119,24.2845357 30.3126119,24.3829532 C30.3126119,24.4813708 30.3618207,24.6289972 30.4110295,24.7274147 C30.4110295,24.8750411 30.4602383,24.9734587 30.509447,25.121085 C30.5586558,25.2687114 30.6570734,25.3671289 30.755491,25.5147553 C31.6904579,26.8433925 32.6746336,28.2212385 33.7572269,29.6482933 C34.8398202,31.0753481 35.8732047,32.5516116 36.9557979,33.9786664 C38.0383912,35.45493 39.1209845,36.8819848 40.154369,38.2598308 C41.1877535,39.6868855 42.1719292,41.0155227 43.1068961,42.2457424 L36.5129189,42.2457424 C35.2826992,42.2457424 34.200106,41.9996985 33.3143478,41.5076106 C32.4285897,41.0155227 31.6412491,40.3265998 31.0507437,39.4900504 L25.2933158,31.7642711 C25.1456894,31.6166447 25.0472718,31.4198096 24.9980631,31.2229744 C24.8996455,31.0261393 24.8012279,30.8293041 24.7520191,30.6816778 C24.7028103,30.5340514 24.6536016,30.3864251 24.6043928,30.1895899 C24.555184,30.3864251 24.4567664,30.5340514 24.4075576,30.7308866 C24.3583488,30.8785129 24.2599313,31.0261393 24.2107225,31.2229744 C24.1123049,31.4198096 24.0138873,31.6166447 23.9154698,31.7642711 L18.3056682,39.4408416 C17.665954,40.3265998 16.8786134,41.0155227 15.9436465,41.5076106 C15.0578884,41.9996985 13.9752951,42.2457424 12.7942842,42.2457424 L6.10188941,42.2457424 L18.4040858,25.6131729 C18.6009209,25.3671289 18.7485473,25.121085 18.7977561,24.9242499 C18.8469649,24.7274147 18.8961736,24.5797884 18.8961736,24.4813708 L18.8961736,24.3829532 C18.8961736,24.1369093 18.8469649,23.9400742 18.7485473,23.6940302 C18.6501297,23.4971951 18.5025034,23.30036 18.4040858,23.1035248 L6.44635091,6.96304315 L13.089537,6.96304315 C14.2705478,6.96304315 15.3531411,7.20908708 16.288108,7.70117494 C17.2230749,8.14405401 17.9612067,8.832977 18.5517121,9.71873514 L23.9154698,17.0508442 C24.0138873,17.2476793 24.1123049,17.3953057 24.2107225,17.5921408 C24.3091401,17.7397672 24.3583488,17.8873935 24.4567664,18.0350199 C24.5059752,18.231855 24.555184,18.3794814 24.6536016,18.5271078 C24.6536016,18.4286902 24.7028103,18.2810638 24.8012279,18.0842287 C24.8504367,17.9366023 24.8996455,17.788976 24.9488543,17.5921408 C25.0472718,17.3953057 25.1456894,17.2476793 25.2933158,17.0508442 L30.6078646,9.76794393 C31.8380842,7.89801008 33.6588093,6.96304315 36.1684574,6.96304315 L42.7624346,6.96304315 L30.755491,23.2019424 Z"></path>
                        </g>
                    </g>
                </g>
                <g id="Group" transform="translate(64.665188, 46.739875)" fill="#373435" fill-rule="nonzero">
                    <g transform="translate(0.000000, 1.206883)" id="Shape">
                        <path d="M1.3987905,6.11544385 L4.4408921e-15,6.11544385 L4.4408921e-15,1.99840144e-15 L2.4649418,1.99840144e-15 C2.74640574,1.99840144e-15 3.01934048,0.0597044727 3.26668758,0.179113418 C3.52256389,0.289993153 3.73579415,0.44351894 3.92343678,0.639690779 C4.1110794,0.835862618 4.25607598,1.0661513 4.36695572,1.32202761 C4.47783545,1.57790392 4.52901071,1.84230944 4.52901071,2.12377339 C4.52901071,2.40523733 4.47783545,2.67817206 4.36695572,2.93404837 C4.25607598,3.18992468 4.1110794,3.42021336 3.92343678,3.6163852 C3.73579415,3.81255704 3.52256389,3.96608283 3.26668758,4.07696256 C3.01934048,4.19637151 2.74640574,4.24754677 2.4649418,4.24754677 L1.3987905,4.24754677 L1.3987905,6.11544385 Z M2.47347101,2.84875627 C2.55876312,2.84875627 2.63552601,2.83169785 2.72081811,2.7890518 C2.79758101,2.74640574 2.86581469,2.68670127 2.92551916,2.61846759 C2.98522363,2.5502339 3.0363989,2.47347101 3.07904495,2.38817891 C3.11316179,2.3028868 3.13022021,2.2175947 3.13022021,2.12377339 C3.13022021,2.03848128 3.11316179,1.95318918 3.07904495,1.86789707 C3.0363989,1.78260497 2.98522363,1.69731287 2.92551916,1.62907918 C2.86581469,1.5608455 2.79758101,1.50967024 2.72081811,1.46702419 C2.63552601,1.42437813 2.55876312,1.3987905 2.47347101,1.3987905 L1.3987905,1.3987905 L1.3987905,2.84875627 L2.47347101,2.84875627 Z"></path>
                    </g>
                    <g transform="translate(5.757222, 1.206883)" id="Shape">
                        <path d="M1.39026129,6.11544385 L5.10702591e-15,6.11544385 L5.10702591e-15,1.99840144e-15 L2.39670812,1.99840144e-15 C2.6269968,1.99840144e-15 2.83169785,0.0341168415 3.02786969,0.0938213142 C3.22404152,0.153525787 3.40315494,0.23028868 3.55668073,0.332639205 C3.71873573,0.43498973 3.85520309,0.554398675 3.97461204,0.690866041 C4.09402098,0.827333407 4.19637151,0.980859194 4.28166361,1.13438498 C4.35842651,1.29643998 4.41813098,1.45849498 4.46077703,1.62054997 C4.50342308,1.79113418 4.52901071,1.96171839 4.52901071,2.12377339 C4.52901071,2.28582838 4.50342308,2.44788338 4.46930624,2.60993838 C4.4351894,2.77199337 4.38401414,2.92551916 4.30725124,3.07904495 C4.22195914,3.23257074 4.12813783,3.37756731 4.00872888,3.52256389 C3.88079072,3.65903125 3.73579415,3.79549862 3.56520994,3.91490757 L5.19428912,6.11544385 L4.00019967,6.11544385 C3.97461204,6.11544385 3.93196599,6.10691463 3.87226151,6.09838542 C3.81255704,6.08985621 3.74432336,6.07279779 3.66756046,6.03868095 C3.59079757,6.01309332 3.50550547,5.96191806 3.42021336,5.90221359 C3.33492126,5.84250911 3.24962916,5.7486878 3.18139547,5.63780806 L2.15789023,4.25607598 L1.39026129,4.25607598 L1.39026129,6.11544385 Z M2.4649418,2.84875627 C2.5502339,2.84875627 2.63552601,2.83169785 2.7122889,2.7890518 C2.7890518,2.74640574 2.86581469,2.68670127 2.92551916,2.61846759 C2.98522363,2.5502339 3.0363989,2.47347101 3.07051574,2.38817891 C3.10463258,2.3028868 3.13022021,2.2175947 3.13022021,2.12377339 C3.13022021,2.03848128 3.10463258,1.95318918 3.07051574,1.86789707 C3.0363989,1.78260497 2.98522363,1.69731287 2.92551916,1.62907918 C2.86581469,1.5608455 2.7890518,1.50967024 2.7122889,1.46702419 C2.63552601,1.42437813 2.5502339,1.3987905 2.4649418,1.3987905 L1.39026129,1.3987905 L1.39026129,2.84875627 L2.4649418,2.84875627 Z"></path>
                    </g>
                    <g transform="translate(11.156170, 1.147179)" id="Shape">
                        <path d="M-1.11022302e-15,3.11316179 C-1.11022302e-15,2.83169785 0.0341168415,2.5502339 0.110879735,2.28582838 C0.187642628,2.02142286 0.298522363,1.77407576 0.43498973,1.54378708 C0.571457096,1.3134984 0.733512093,1.10026814 0.921154721,0.912625511 C1.10879735,0.724982883 1.32202761,0.562927885 1.5608455,0.426460519 C1.79113418,0.289993153 2.03848128,0.187642628 2.31141601,0.110879735 C2.57582154,0.0426460519 2.84875627,4.4408921e-16 3.13874942,4.4408921e-16 C3.42874257,4.4408921e-16 3.70167731,0.0426460519 3.97461204,0.110879735 C4.23901756,0.187642628 4.48636466,0.289993153 4.72518255,0.426460519 C4.95547123,0.562927885 5.16870149,0.724982883 5.35634412,0.912625511 C5.54398675,1.10026814 5.71457096,1.3134984 5.85103832,1.54378708 C5.98750569,1.77407576 6.08985621,2.02142286 6.16661911,2.28582838 C6.243382,2.5502339 6.27749884,2.83169785 6.27749884,3.11316179 C6.27749884,3.40315494 6.243382,3.68461889 6.16661911,3.94902441 C6.08985621,4.21342993 5.98750569,4.46077703 5.85103832,4.69106571 C5.71457096,4.92135439 5.54398675,5.13458465 5.35634412,5.32222728 C5.16870149,5.50986991 4.95547123,5.67192491 4.72518255,5.80839227 C4.48636466,5.94485964 4.23901756,6.04721016 3.97461204,6.11544385 C3.70167731,6.19220674 3.42874257,6.23485279 3.13874942,6.23485279 C2.84875627,6.23485279 2.56729233,6.19220674 2.3028868,6.11544385 C2.03848128,6.04721016 1.79113418,5.94485964 1.5608455,5.80839227 C1.32202761,5.67192491 1.10879735,5.50986991 0.921154721,5.32222728 C0.733512093,5.13458465 0.571457096,4.92135439 0.43498973,4.69106571 C0.298522363,4.46077703 0.187642628,4.21342993 0.110879735,3.94902441 C0.0341168415,3.68461889 -1.11022302e-15,3.40315494 -1.11022302e-15,3.11316179 Z M1.3987905,3.11316179 C1.3987905,3.35197968 1.44143655,3.57373915 1.53525787,3.78696941 C1.62907918,3.99167046 1.75701734,4.17931309 1.91907234,4.33283887 C2.07259812,4.48636466 2.26024075,4.61430282 2.47347101,4.69959492 C2.67817206,4.79341624 2.89993153,4.83606229 3.13874942,4.83606229 C3.3690381,4.83606229 3.59079757,4.79341624 3.80402783,4.69959492 C4.01725809,4.61430282 4.20490072,4.48636466 4.36695572,4.33283887 C4.5204815,4.17931309 4.64841966,3.99167046 4.74224097,3.78696941 C4.83606229,3.57373915 4.88723755,3.35197968 4.88723755,3.11316179 C4.88723755,2.88287311 4.83606229,2.66111364 4.74224097,2.44788338 C4.64841966,2.24318233 4.5204815,2.0555397 4.36695572,1.90201392 C4.20490072,1.74848813 4.01725809,1.62907918 3.80402783,1.53525787 C3.59079757,1.44143655 3.3690381,1.3987905 3.13874942,1.3987905 C2.89993153,1.3987905 2.67817206,1.44143655 2.47347101,1.53525787 C2.26024075,1.62907918 2.07259812,1.74848813 1.91907234,1.90201392 C1.75701734,2.0555397 1.62907918,2.24318233 1.53525787,2.44788338 C1.44143655,2.66111364 1.3987905,2.88287311 1.3987905,3.11316179 Z"></path>
                    </g>
                    <g transform="translate(16.768410, 0.000000)" id="Path">
                        <path d="M2.84022706,4.26034059 C2.84022706,4.49915848 2.88287311,4.72091795 2.97669442,4.93414821 C3.07051574,5.13884926 3.19845389,5.32649188 3.36050889,5.48001767 C3.51403468,5.63354346 3.70167731,5.76148161 3.91490757,5.84677372 C4.11960862,5.94059503 4.34136809,5.98324108 4.58018598,5.98324108 C4.75929939,5.98324108 4.9298836,5.95765345 5.0919386,5.89794898 C5.2539936,5.84677372 5.40751938,5.77001082 5.54398675,5.67618951 C5.69751254,5.57383899 5.86809674,5.52266372 6.05573937,5.52266372 C6.20073595,5.52266372 6.3286741,5.54825135 6.43955384,5.59089741 C6.54190436,5.64207267 6.63572568,5.71030635 6.72954699,5.79559846 L7.08777383,6.15382529 C6.90866041,6.34146792 6.72101778,6.51205213 6.52484594,6.66557791 C6.3286741,6.8191037 6.12397306,6.94704186 5.9107428,7.04939238 C5.69751254,7.15174291 5.48428228,7.23703501 5.26252281,7.28821027 C5.03223413,7.34791475 4.81047466,7.38203159 4.58018598,7.38203159 C4.29019282,7.38203159 4.01725809,7.33938554 3.75285257,7.26262264 C3.47991784,7.19438896 3.23257074,7.09203843 3.00228206,6.95557107 C2.76346416,6.8191037 2.5502339,6.6570487 2.36259128,6.46940608 C2.17494865,6.28176345 2.01289365,6.06853319 1.87642628,5.83824451 C1.73995892,5.60795583 1.62907918,5.36060873 1.55231629,5.0962032 C1.4755534,4.83179768 1.44143655,4.55033374 1.44143655,4.26034059 C1.44143655,3.97887664 1.4755534,3.6974127 1.55231629,3.43300718 C1.62907918,3.16860166 1.73995892,2.92125456 1.87642628,2.69096588 C2.01289365,2.4606772 2.17494865,2.24744694 2.36259128,2.05980431 C2.5502339,1.87216168 2.76346416,1.71010668 3.00228206,1.57363932 C3.23257074,1.43717195 3.47991784,1.33482143 3.75285257,1.25805853 C4.01725809,1.18982485 4.29019282,1.1471788 4.58018598,1.1471788 C4.81047466,1.1471788 5.03223413,1.18129564 5.26252281,1.2324709 C5.48428228,1.29217537 5.69751254,1.37746748 5.9107428,1.479818 C6.12397306,1.58216853 6.3286741,1.71010668 6.52484594,1.86363247 C6.72101778,2.01715826 6.90866041,2.17921325 7.08777383,2.36685588 L6.72954699,2.73361193 C6.64425489,2.81890403 6.54190436,2.88713771 6.43102463,2.93831298 C6.32014489,2.98948824 6.19220674,3.00654666 6.05573937,3.00654666 C5.86809674,3.00654666 5.69751254,2.9553714 5.54398675,2.85302087 C5.39899017,2.75919956 5.2539936,2.68243667 5.0919386,2.62273219 C4.9298836,2.57155693 4.75929939,2.5459693 4.58018598,2.5459693 C4.34136809,2.5459693 4.11960862,2.58861535 3.91490757,2.68243667 C3.70167731,2.77625798 3.51403468,2.89566693 3.36050889,3.04919271 C3.19845389,3.2027185 3.07051574,3.39036113 2.97669442,3.59506218 C2.88287311,3.80829244 2.84022706,4.03005191 2.84022706,4.26034059 Z"></path>
                    </g>
                    <g transform="translate(22.726083, 0.000000)" id="Path">
                        <polygon points="6.29882187 7.32232711 2.23038852 7.32232711 2.23038852 1.20688327 6.29882187 1.20688327 6.29882187 2.51185246 3.62917902 2.51185246 3.62917902 3.58653297 5.80412767 3.58653297 5.80412767 4.89150215 3.62917902 4.89150215 3.62917902 6.01735793 6.29882187 6.01735793"></polygon>
                    </g>
                    <g transform="translate(27.677279, 0.000000)" id="Path">
                        <path d="M4.37122032,2.5459693 C4.29445743,2.5459693 4.21769453,2.55449851 4.14946085,2.57155693 C4.08122717,2.58008614 4.0215227,2.60567377 3.97034743,2.6312614 C3.91064296,2.65684903 3.86799691,2.69096588 3.83388007,2.73361193 C3.79976323,2.77625798 3.79123402,2.82743324 3.79123402,2.88713771 C3.79123402,2.98095903 3.80829244,3.04919271 3.8594677,3.10036797 C3.90211375,3.15154324 3.97034743,3.2027185 4.06416875,3.23683534 C4.15799006,3.27948139 4.2688698,3.31359823 4.40533716,3.35624429 C4.54180453,3.39036113 4.70385953,3.44153639 4.89150215,3.50124086 C5.13032005,3.58653297 5.34355031,3.68035428 5.53972214,3.79976323 C5.73589398,3.91064296 5.89794898,4.04711033 6.03441635,4.20063611 C6.17088371,4.3541619 6.28176345,4.53327532 6.35852634,4.72091795 C6.43528923,4.91708979 6.47793529,5.13032005 6.47793529,5.36913794 C6.47793529,5.6676603 6.4097016,5.94059503 6.29029266,6.18794213 C6.1623545,6.43528923 5.99177029,6.63999028 5.78706925,6.8191037 C5.57383899,6.99821712 5.33502109,7.13468449 5.06208636,7.2285058 C4.78915163,7.33085632 4.50768769,7.38203159 4.21769453,7.38203159 C3.96181822,7.38203159 3.72300033,7.33938554 3.50124086,7.26262264 C3.27095218,7.19438896 3.06625113,7.09203843 2.8786085,6.95557107 C2.69096588,6.82763291 2.52038167,6.66557791 2.3839143,6.4864645 C2.23891773,6.29882187 2.12803799,6.10265003 2.0512751,5.88089056 L2.49479404,5.62501425 C2.56302772,5.59089741 2.63979061,5.55678056 2.71655351,5.53119293 C2.80184561,5.5056053 2.8786085,5.49707609 2.96390061,5.49707609 C3.08330955,5.49707609 3.19418929,5.52266372 3.29653981,5.57383899 C3.39036113,5.62501425 3.49271165,5.67618951 3.58653297,5.73589398 C3.68035428,5.79559846 3.77417559,5.85530293 3.87652612,5.90647819 C3.97034743,5.95765345 4.08975638,5.98324108 4.21769453,5.98324108 C4.30298664,5.98324108 4.38827874,5.96618266 4.49062927,5.94059503 C4.59297979,5.9150074 4.68680111,5.87236135 4.77209321,5.82118609 C4.85738531,5.77001082 4.93414821,5.71030635 4.99385268,5.63354346 C5.04502794,5.55678056 5.07914478,5.47148846 5.07914478,5.36913794 C5.07914478,5.27531662 5.04502794,5.19855373 4.99385268,5.13884926 C4.94267742,5.07914478 4.87444373,5.02796952 4.78062242,4.98532347 C4.69533032,4.94267742 4.59297979,4.90003137 4.47357085,4.86591452 C4.3541619,4.83179768 4.23475296,4.78062242 4.1068148,4.72944716 C3.89358454,4.65268426 3.68888349,4.56739216 3.48418244,4.47357085 C3.27948139,4.37974953 3.10036797,4.26034059 2.93831298,4.12387322 C2.77625798,3.98740585 2.63979061,3.81682165 2.53744009,3.62064981 C2.43508956,3.42447797 2.39244351,3.17713087 2.39244351,2.88713771 C2.39244351,2.61420298 2.44361877,2.36685588 2.55449851,2.15362562 C2.66537824,1.94039536 2.81890403,1.75275273 3.00654666,1.60775616 C3.18566008,1.46275958 3.39889034,1.34335064 3.63770823,1.26658774 C3.87652612,1.18982485 4.11534401,1.1471788 4.37122032,1.1471788 C4.55033374,1.1471788 4.72944716,1.18129564 4.90003137,1.24100011 C5.07061557,1.30070458 5.23267057,1.38599669 5.38619636,1.479818 C5.53972214,1.58216853 5.68471872,1.69304826 5.82118609,1.81245721 C5.94912424,1.94039536 6.06853319,2.06833352 6.17941292,2.19627167 L5.7529524,2.56302772 C5.6676603,2.63979061 5.57383899,2.69096588 5.48001767,2.71655351 C5.38619636,2.75067035 5.28384583,2.76772877 5.1729661,2.76772877 C5.07914478,2.76772877 5.00238189,2.75919956 4.93414821,2.73361193 C4.86591452,2.7080243 4.80621005,2.68243667 4.74650558,2.65684903 C4.68680111,2.6312614 4.62709663,2.60567377 4.56739216,2.58008614 C4.50768769,2.56302772 4.439454,2.5459693 4.37122032,2.5459693 Z"></path>
                    </g>
                    <g transform="translate(32.671094, 0.000000)" id="Path">
                        <path d="M4.37122032,2.5459693 C4.29445743,2.5459693 4.21769453,2.55449851 4.14946085,2.57155693 C4.08122717,2.58008614 4.0215227,2.60567377 3.97034743,2.6312614 C3.91064296,2.65684903 3.86799691,2.69096588 3.83388007,2.73361193 C3.79976323,2.77625798 3.79123402,2.82743324 3.79123402,2.88713771 C3.79123402,2.98095903 3.80829244,3.04919271 3.8594677,3.10036797 C3.90211375,3.15154324 3.97034743,3.2027185 4.06416875,3.23683534 C4.15799006,3.27948139 4.2688698,3.31359823 4.40533716,3.35624429 C4.54180453,3.39036113 4.70385953,3.44153639 4.89150215,3.50124086 C5.13032005,3.58653297 5.34355031,3.68035428 5.53972214,3.79976323 C5.73589398,3.91064296 5.89794898,4.04711033 6.03441635,4.20063611 C6.17088371,4.3541619 6.28176345,4.53327532 6.35852634,4.72091795 C6.43528923,4.91708979 6.47793529,5.13032005 6.47793529,5.36913794 C6.47793529,5.6676603 6.4097016,5.94059503 6.29029266,6.18794213 C6.1623545,6.43528923 5.99177029,6.63999028 5.78706925,6.8191037 C5.57383899,6.99821712 5.33502109,7.13468449 5.06208636,7.2285058 C4.78915163,7.33085632 4.50768769,7.38203159 4.21769453,7.38203159 C3.96181822,7.38203159 3.72300033,7.33938554 3.50124086,7.26262264 C3.27095218,7.19438896 3.06625113,7.09203843 2.8786085,6.95557107 C2.69096588,6.82763291 2.52038167,6.66557791 2.3839143,6.4864645 C2.23891773,6.29882187 2.12803799,6.10265003 2.0512751,5.88089056 L2.49479404,5.62501425 C2.56302772,5.59089741 2.63979061,5.55678056 2.71655351,5.53119293 C2.80184561,5.5056053 2.8786085,5.49707609 2.96390061,5.49707609 C3.08330955,5.49707609 3.19418929,5.52266372 3.29653981,5.57383899 C3.39036113,5.62501425 3.49271165,5.67618951 3.58653297,5.73589398 C3.68035428,5.79559846 3.77417559,5.85530293 3.87652612,5.90647819 C3.97034743,5.95765345 4.08975638,5.98324108 4.21769453,5.98324108 C4.30298664,5.98324108 4.38827874,5.96618266 4.49062927,5.94059503 C4.59297979,5.9150074 4.68680111,5.87236135 4.77209321,5.82118609 C4.85738531,5.77001082 4.93414821,5.71030635 4.99385268,5.63354346 C5.04502794,5.55678056 5.07914478,5.47148846 5.07914478,5.36913794 C5.07914478,5.27531662 5.04502794,5.19855373 4.99385268,5.13884926 C4.94267742,5.07914478 4.87444373,5.02796952 4.78062242,4.98532347 C4.69533032,4.94267742 4.59297979,4.90003137 4.47357085,4.86591452 C4.3541619,4.83179768 4.23475296,4.78062242 4.1068148,4.72944716 C3.89358454,4.65268426 3.68888349,4.56739216 3.48418244,4.47357085 C3.27948139,4.37974953 3.10036797,4.26034059 2.93831298,4.12387322 C2.77625798,3.98740585 2.63979061,3.81682165 2.53744009,3.62064981 C2.43508956,3.42447797 2.39244351,3.17713087 2.39244351,2.88713771 C2.39244351,2.61420298 2.44361877,2.36685588 2.55449851,2.15362562 C2.66537824,1.94039536 2.81890403,1.75275273 3.00654666,1.60775616 C3.18566008,1.46275958 3.39889034,1.34335064 3.63770823,1.26658774 C3.87652612,1.18982485 4.11534401,1.1471788 4.37122032,1.1471788 C4.55033374,1.1471788 4.72944716,1.18129564 4.90003137,1.24100011 C5.07061557,1.30070458 5.23267057,1.38599669 5.38619636,1.479818 C5.53972214,1.58216853 5.68471872,1.69304826 5.82118609,1.81245721 C5.94912424,1.94039536 6.06853319,2.06833352 6.17941292,2.19627167 L5.7529524,2.56302772 C5.6676603,2.63979061 5.57383899,2.69096588 5.48001767,2.71655351 C5.38619636,2.75067035 5.28384583,2.76772877 5.1729661,2.76772877 C5.07914478,2.76772877 5.00238189,2.75919956 4.93414821,2.73361193 C4.86591452,2.7080243 4.80621005,2.68243667 4.74650558,2.65684903 C4.68680111,2.6312614 4.62709663,2.60567377 4.56739216,2.58008614 C4.50768769,2.56302772 4.439454,2.5459693 4.37122032,2.5459693 Z"></path>
                    </g>
                    <g transform="translate(39.852752, 1.147179)" id="Shape">
                        <path d="M-4.4408921e-16,3.11316179 C-4.4408921e-16,2.83169785 0.0341168415,2.5502339 0.110879735,2.28582838 C0.187642628,2.02142286 0.298522363,1.77407576 0.43498973,1.54378708 C0.571457096,1.3134984 0.733512093,1.10026814 0.921154721,0.912625511 C1.10879735,0.724982883 1.32202761,0.562927885 1.5608455,0.426460519 C1.79113418,0.289993153 2.03848128,0.187642628 2.31141601,0.110879735 C2.57582154,0.0426460519 2.84875627,4.4408921e-16 3.13874942,4.4408921e-16 C3.42874257,4.4408921e-16 3.70167731,0.0426460519 3.97461204,0.110879735 C4.23901756,0.187642628 4.48636466,0.289993153 4.72518255,0.426460519 C4.95547123,0.562927885 5.16870149,0.724982883 5.35634412,0.912625511 C5.54398675,1.10026814 5.71457096,1.3134984 5.85103832,1.54378708 C5.98750569,1.77407576 6.08985621,2.02142286 6.16661911,2.28582838 C6.243382,2.5502339 6.27749884,2.83169785 6.27749884,3.11316179 C6.27749884,3.40315494 6.243382,3.68461889 6.16661911,3.94902441 C6.08985621,4.21342993 5.98750569,4.46077703 5.85103832,4.69106571 C5.71457096,4.92135439 5.54398675,5.13458465 5.35634412,5.32222728 C5.16870149,5.50986991 4.95547123,5.67192491 4.72518255,5.80839227 C4.48636466,5.94485964 4.23901756,6.04721016 3.97461204,6.11544385 C3.70167731,6.19220674 3.42874257,6.23485279 3.13874942,6.23485279 C2.84875627,6.23485279 2.56729233,6.19220674 2.3028868,6.11544385 C2.03848128,6.04721016 1.79113418,5.94485964 1.5608455,5.80839227 C1.32202761,5.67192491 1.10879735,5.50986991 0.921154721,5.32222728 C0.733512093,5.13458465 0.571457096,4.92135439 0.43498973,4.69106571 C0.298522363,4.46077703 0.187642628,4.21342993 0.110879735,3.94902441 C0.0341168415,3.68461889 -4.4408921e-16,3.40315494 -4.4408921e-16,3.11316179 Z M1.3987905,3.11316179 C1.3987905,3.35197968 1.44143655,3.57373915 1.53525787,3.78696941 C1.62907918,3.99167046 1.75701734,4.17931309 1.91907234,4.33283887 C2.07259812,4.48636466 2.26024075,4.61430282 2.47347101,4.69959492 C2.67817206,4.79341624 2.89993153,4.83606229 3.13874942,4.83606229 C3.3690381,4.83606229 3.59079757,4.79341624 3.80402783,4.69959492 C4.01725809,4.61430282 4.20490072,4.48636466 4.36695572,4.33283887 C4.5204815,4.17931309 4.64841966,3.99167046 4.74224097,3.78696941 C4.83606229,3.57373915 4.88723755,3.35197968 4.88723755,3.11316179 C4.88723755,2.88287311 4.83606229,2.66111364 4.74224097,2.44788338 C4.64841966,2.24318233 4.5204815,2.0555397 4.36695572,1.90201392 C4.20490072,1.74848813 4.01725809,1.62907918 3.80402783,1.53525787 C3.59079757,1.44143655 3.3690381,1.3987905 3.13874942,1.3987905 C2.89993153,1.3987905 2.67817206,1.44143655 2.47347101,1.53525787 C2.26024075,1.62907918 2.07259812,1.74848813 1.91907234,1.90201392 C1.75701734,2.0555397 1.62907918,2.24318233 1.53525787,2.44788338 C1.44143655,2.66111364 1.3987905,2.88287311 1.3987905,3.11316179 Z"></path>
                    </g>
                    <g transform="translate(44.727215, 0.000000)" id="Path">
                        <path d="M4.37122032,2.5459693 C4.29445743,2.5459693 4.21769453,2.55449851 4.14946085,2.57155693 C4.08122717,2.58008614 4.0215227,2.60567377 3.97034743,2.6312614 C3.91064296,2.65684903 3.86799691,2.69096588 3.83388007,2.73361193 C3.79976323,2.77625798 3.79123402,2.82743324 3.79123402,2.88713771 C3.79123402,2.98095903 3.80829244,3.04919271 3.8594677,3.10036797 C3.90211375,3.15154324 3.97034743,3.2027185 4.06416875,3.23683534 C4.15799006,3.27948139 4.2688698,3.31359823 4.40533716,3.35624429 C4.54180453,3.39036113 4.70385953,3.44153639 4.89150215,3.50124086 C5.13032005,3.58653297 5.34355031,3.68035428 5.53972214,3.79976323 C5.73589398,3.91064296 5.89794898,4.04711033 6.03441635,4.20063611 C6.17088371,4.3541619 6.28176345,4.53327532 6.35852634,4.72091795 C6.43528923,4.91708979 6.47793529,5.13032005 6.47793529,5.36913794 C6.47793529,5.6676603 6.4097016,5.94059503 6.29029266,6.18794213 C6.1623545,6.43528923 5.99177029,6.63999028 5.78706925,6.8191037 C5.57383899,6.99821712 5.33502109,7.13468449 5.06208636,7.2285058 C4.78915163,7.33085632 4.50768769,7.38203159 4.21769453,7.38203159 C3.96181822,7.38203159 3.72300033,7.33938554 3.50124086,7.26262264 C3.27095218,7.19438896 3.06625113,7.09203843 2.8786085,6.95557107 C2.69096588,6.82763291 2.52038167,6.66557791 2.3839143,6.4864645 C2.23891773,6.29882187 2.12803799,6.10265003 2.0512751,5.88089056 L2.49479404,5.62501425 C2.56302772,5.59089741 2.63979061,5.55678056 2.71655351,5.53119293 C2.80184561,5.5056053 2.8786085,5.49707609 2.96390061,5.49707609 C3.08330955,5.49707609 3.19418929,5.52266372 3.29653981,5.57383899 C3.39036113,5.62501425 3.49271165,5.67618951 3.58653297,5.73589398 C3.68035428,5.79559846 3.77417559,5.85530293 3.87652612,5.90647819 C3.97034743,5.95765345 4.08975638,5.98324108 4.21769453,5.98324108 C4.30298664,5.98324108 4.38827874,5.96618266 4.49062927,5.94059503 C4.59297979,5.9150074 4.68680111,5.87236135 4.77209321,5.82118609 C4.85738531,5.77001082 4.93414821,5.71030635 4.99385268,5.63354346 C5.04502794,5.55678056 5.07914478,5.47148846 5.07914478,5.36913794 C5.07914478,5.27531662 5.04502794,5.19855373 4.99385268,5.13884926 C4.94267742,5.07914478 4.87444373,5.02796952 4.78062242,4.98532347 C4.69533032,4.94267742 4.59297979,4.90003137 4.47357085,4.86591452 C4.3541619,4.83179768 4.23475296,4.78062242 4.1068148,4.72944716 C3.89358454,4.65268426 3.68888349,4.56739216 3.48418244,4.47357085 C3.27948139,4.37974953 3.10036797,4.26034059 2.93831298,4.12387322 C2.77625798,3.98740585 2.63979061,3.81682165 2.53744009,3.62064981 C2.43508956,3.42447797 2.39244351,3.17713087 2.39244351,2.88713771 C2.39244351,2.61420298 2.44361877,2.36685588 2.55449851,2.15362562 C2.66537824,1.94039536 2.81890403,1.75275273 3.00654666,1.60775616 C3.18566008,1.46275958 3.39889034,1.34335064 3.63770823,1.26658774 C3.87652612,1.18982485 4.11534401,1.1471788 4.37122032,1.1471788 C4.55033374,1.1471788 4.72944716,1.18129564 4.90003137,1.24100011 C5.07061557,1.30070458 5.23267057,1.38599669 5.38619636,1.479818 C5.53972214,1.58216853 5.68471872,1.69304826 5.82118609,1.81245721 C5.94912424,1.94039536 6.06853319,2.06833352 6.17941292,2.19627167 L5.7529524,2.56302772 C5.6676603,2.63979061 5.57383899,2.69096588 5.48001767,2.71655351 C5.38619636,2.75067035 5.28384583,2.76772877 5.1729661,2.76772877 C5.07914478,2.76772877 5.00238189,2.75919956 4.93414821,2.73361193 C4.86591452,2.7080243 4.80621005,2.68243667 4.74650558,2.65684903 C4.68680111,2.6312614 4.62709663,2.60567377 4.56739216,2.58008614 C4.50768769,2.56302772 4.439454,2.5459693 4.37122032,2.5459693 Z"></path>
                    </g>
                    <g transform="translate(54.889765, 1.206883)" id="Shape">
                        <path d="M1.0658141e-14,6.11544385 L1.0658141e-14,1.99840144e-15 L2.53317548,1.99840144e-15 C2.81463943,1.99840144e-15 3.07904495,0.0426460519 3.34345047,0.110879735 C3.60785599,0.187642628 3.85520309,0.289993153 4.08549177,0.417931309 C4.30725124,0.554398675 4.5204815,0.716453672 4.70812413,0.904096301 C4.89576676,1.09173893 5.05782176,1.29643998 5.19428912,1.51819945 C5.32222728,1.74848813 5.4245778,1.98730602 5.5013407,2.25171154 C5.57810359,2.50758785 5.61222043,2.78052259 5.61222043,3.06198653 C5.61222043,3.34345047 5.57810359,3.6163852 5.5013407,3.87226151 C5.4245778,4.13666704 5.32222728,4.37548493 5.19428912,4.60577361 C5.05782176,4.82753308 4.89576676,5.03223413 4.70812413,5.21987675 C4.5204815,5.40751938 4.30725124,5.56957438 4.08549177,5.69751254 C3.85520309,5.8339799 3.60785599,5.93633043 3.34345047,6.00456411 C3.07904495,6.081327 2.81463943,6.11544385 2.53317548,6.11544385 L1.0658141e-14,6.11544385 Z M2.53317548,4.71665334 C2.75493495,4.71665334 2.96816521,4.67400729 3.17286626,4.58871519 C3.37756731,4.50342308 3.55668073,4.38401414 3.71020652,4.23048835 C3.8637323,4.08549177 3.98314125,3.90637836 4.07696256,3.70167731 C4.17078388,3.50550547 4.21342993,3.29227521 4.21342993,3.06198653 C4.21342993,2.83169785 4.17078388,2.61846759 4.07696256,2.41376654 C3.98314125,2.2175947 3.8637323,2.03848128 3.71020652,1.88495549 C3.55668073,1.73995892 3.37756731,1.62054997 3.17286626,1.53525787 C2.96816521,1.44996577 2.75493495,1.3987905 2.53317548,1.3987905 L1.3987905,1.3987905 L1.3987905,4.71665334 L2.53317548,4.71665334 Z"></path>
                    </g>
                    <g transform="translate(61.781370, 1.206883)" id="Rectangle">
                        <rect x="0" y="0" width="1.3987905" height="6.11544385"></rect>
                    </g>
                    <g transform="translate(63.018059, 0.000000)" id="Path">
                        <path d="M6.94704186,3.89358454 L6.94704186,6.54616897 C6.78498686,6.71675318 6.61440265,6.85322054 6.42676002,6.96410028 C6.2391174,7.0664508 6.04294556,7.15174291 5.84677372,7.21144738 C5.64207267,7.27115185 5.43737162,7.3137979 5.22414136,7.33938554 C5.0109111,7.36497317 4.79768084,7.38203159 4.58445058,7.38203159 C4.29445743,7.38203159 4.01299349,7.33938554 3.74858796,7.26262264 C3.48418244,7.19438896 3.22830613,7.09203843 2.99801745,6.95557107 C2.76772877,6.8191037 2.55449851,6.6570487 2.36685588,6.46940608 C2.17068404,6.28176345 2.00862905,6.06853319 1.87216168,5.83824451 C1.73569431,5.60795583 1.63334379,5.36060873 1.5565809,5.0962032 C1.479818,4.83179768 1.44570116,4.55033374 1.44570116,4.26034059 C1.44570116,3.97887664 1.479818,3.6974127 1.5565809,3.43300718 C1.63334379,3.16860166 1.73569431,2.92125456 1.87216168,2.69096588 C2.00862905,2.4606772 2.17068404,2.24744694 2.36685588,2.05980431 C2.55449851,1.87216168 2.76772877,1.71010668 2.99801745,1.57363932 C3.22830613,1.43717195 3.48418244,1.33482143 3.74858796,1.25805853 C4.01299349,1.18982485 4.29445743,1.1471788 4.58445058,1.1471788 C4.80621005,1.1471788 5.03649873,1.18129564 5.2582582,1.2324709 C5.48001767,1.29217537 5.70177714,1.37746748 5.9150074,1.479818 C6.12823766,1.58216853 6.33293871,1.71010668 6.52911055,1.85510326 C6.72528239,2.00862905 6.91292502,2.17921325 7.08350922,2.36685588 L6.7338116,2.73361193 C6.55469818,2.92125456 6.33293871,3.00654666 6.06000398,3.00654666 C5.87236135,3.00654666 5.70177714,2.9553714 5.54825135,2.85302087 C5.40325478,2.75919956 5.24972899,2.68243667 5.08767399,2.6312614 C4.925619,2.57155693 4.763564,2.5459693 4.58445058,2.5459693 C4.34563269,2.5459693 4.12387322,2.58861535 3.91064296,2.68243667 C3.6974127,2.77625798 3.51829928,2.89566693 3.35624429,3.04919271 C3.2027185,3.2027185 3.07478034,3.39036113 2.98095903,3.59506218 C2.88713771,3.80829244 2.84449166,4.03005191 2.84449166,4.26034059 C2.84449166,4.5162169 2.88713771,4.73797637 2.98948824,4.95120663 C3.08330955,5.16443689 3.21977692,5.34355031 3.38183192,5.49707609 C3.54388691,5.65060188 3.73152954,5.77001082 3.9447598,5.85530293 C4.15799006,5.94059503 4.38827874,5.98324108 4.62709663,5.98324108 C4.78915163,5.98324108 4.94267742,5.96618266 5.11326162,5.93206582 C5.27531662,5.90647819 5.4203132,5.85530293 5.54825135,5.79559846 L5.54825135,5.20708294 C5.41178399,5.20708294 5.28384583,5.18149531 5.1729661,5.13884926 C5.06208636,5.0962032 4.95973584,5.03649873 4.88297294,4.96826505 C4.79768084,4.89150215 4.73797637,4.80621005 4.69533032,4.71238874 C4.64415505,4.61003821 4.62709663,4.49915848 4.62709663,4.37974953 L4.62709663,3.89358454 L6.94704186,3.89358454 Z"></path>
                    </g>
                    <g transform="translate(71.449216, 1.206883)" id="Rectangle">
                        <rect x="0" y="0" width="1.3987905" height="6.11544385"></rect>
                    </g>
                    <g transform="translate(72.059008, 0.000000)" id="Path">
                        <polygon points="1.86789707 2.51185246 1.86789707 1.20688327 6.66131331 1.20688327 6.66131331 2.51185246 4.96400044 2.51185246 4.96400044 7.32232711 3.57373915 7.32232711 3.57373915 2.51185246"></polygon>
                    </g>
                    <g transform="translate(78.119067, 1.206883)" id="Shape">
                        <path d="M2.67817206,1.99840144e-15 L3.88079072,1.99840144e-15 L6.55043357,6.11544385 L5.64633727,6.11544385 C5.55251596,6.11544385 5.45869465,6.10691463 5.37340254,6.081327 C5.28811044,6.05573937 5.21134754,6.02162253 5.13458465,5.97044727 C5.05782176,5.92780122 4.99811728,5.86809674 4.93841281,5.79986306 C4.87870834,5.73162938 4.82753308,5.65486648 4.79341624,5.56957438 L4.49489387,4.89576676 L2.06406891,4.89576676 L1.77407576,5.56957438 C1.73995892,5.64633727 1.68878366,5.72310017 1.62907918,5.78280464 C1.56937471,5.85103832 1.50114103,5.9107428 1.42437813,5.96191806 C1.33908603,6.01309332 1.26232314,6.04721016 1.17703103,6.07279779 C1.08320972,6.09838542 0.997917615,6.11544385 0.912625511,6.11544385 L4.5519144e-15,6.11544385 L2.67817206,1.99840144e-15 Z M2.61846759,3.62491441 L3.92343678,3.62491441 L3.39462573,2.34553286 C3.3690381,2.29435759 3.34345047,2.23465312 3.33492126,2.18347786 C3.31786284,2.1323026 3.30933363,2.08965654 3.30080442,2.04701049 C3.283746,2.00436444 3.27521679,1.96171839 3.27521679,1.91907234 C3.26668758,1.96171839 3.25815837,2.00436444 3.24962916,2.04701049 C3.24109995,2.08965654 3.23257074,2.1323026 3.21551231,2.18347786 C3.19845389,2.23465312 3.18139547,2.29435759 3.15580784,2.34553286 L2.61846759,3.62491441 Z"></path>
                    </g>
                    <g transform="translate(85.411514, 1.206883)" id="Rectangle">
                        <rect x="0" y="0" width="1.3987905" height="6.11544385"></rect>
                    </g>
                    <g transform="translate(85.906162, 0.000000)" id="Path">
                        <path d="M4.37122032,2.5459693 C4.29445743,2.5459693 4.21769453,2.55449851 4.14946085,2.57155693 C4.08122717,2.58008614 4.0215227,2.60567377 3.97034743,2.6312614 C3.91064296,2.65684903 3.86799691,2.69096588 3.83388007,2.73361193 C3.79976323,2.77625798 3.79123402,2.82743324 3.79123402,2.88713771 C3.79123402,2.98095903 3.80829244,3.04919271 3.8594677,3.10036797 C3.90211375,3.15154324 3.97034743,3.2027185 4.06416875,3.23683534 C4.15799006,3.27948139 4.2688698,3.31359823 4.40533716,3.35624429 C4.54180453,3.39036113 4.70385953,3.44153639 4.89150215,3.50124086 C5.13032005,3.58653297 5.34355031,3.68035428 5.53972214,3.79976323 C5.73589398,3.91064296 5.89794898,4.04711033 6.03441635,4.20063611 C6.17088371,4.3541619 6.28176345,4.53327532 6.35852634,4.72091795 C6.43528923,4.91708979 6.47793529,5.13032005 6.47793529,5.36913794 C6.47793529,5.6676603 6.4097016,5.94059503 6.29029266,6.18794213 C6.1623545,6.43528923 5.99177029,6.63999028 5.78706925,6.8191037 C5.57383899,6.99821712 5.33502109,7.13468449 5.06208636,7.2285058 C4.78915163,7.33085632 4.50768769,7.38203159 4.21769453,7.38203159 C3.96181822,7.38203159 3.72300033,7.33938554 3.50124086,7.26262264 C3.27095218,7.19438896 3.06625113,7.09203843 2.8786085,6.95557107 C2.69096588,6.82763291 2.52038167,6.66557791 2.3839143,6.4864645 C2.23891773,6.29882187 2.12803799,6.10265003 2.0512751,5.88089056 L2.49479404,5.62501425 C2.56302772,5.59089741 2.63979061,5.55678056 2.71655351,5.53119293 C2.80184561,5.5056053 2.8786085,5.49707609 2.96390061,5.49707609 C3.08330955,5.49707609 3.19418929,5.52266372 3.29653981,5.57383899 C3.39036113,5.62501425 3.49271165,5.67618951 3.58653297,5.73589398 C3.68035428,5.79559846 3.77417559,5.85530293 3.87652612,5.90647819 C3.97034743,5.95765345 4.08975638,5.98324108 4.21769453,5.98324108 C4.30298664,5.98324108 4.38827874,5.96618266 4.49062927,5.94059503 C4.59297979,5.9150074 4.68680111,5.87236135 4.77209321,5.82118609 C4.85738531,5.77001082 4.93414821,5.71030635 4.99385268,5.63354346 C5.04502794,5.55678056 5.07914478,5.47148846 5.07914478,5.36913794 C5.07914478,5.27531662 5.04502794,5.19855373 4.99385268,5.13884926 C4.94267742,5.07914478 4.87444373,5.02796952 4.78062242,4.98532347 C4.69533032,4.94267742 4.59297979,4.90003137 4.47357085,4.86591452 C4.3541619,4.83179768 4.23475296,4.78062242 4.1068148,4.72944716 C3.89358454,4.65268426 3.68888349,4.56739216 3.48418244,4.47357085 C3.27948139,4.37974953 3.10036797,4.26034059 2.93831298,4.12387322 C2.77625798,3.98740585 2.63979061,3.81682165 2.53744009,3.62064981 C2.43508956,3.42447797 2.39244351,3.17713087 2.39244351,2.88713771 C2.39244351,2.61420298 2.44361877,2.36685588 2.55449851,2.15362562 C2.66537824,1.94039536 2.81890403,1.75275273 3.00654666,1.60775616 C3.18566008,1.46275958 3.39889034,1.34335064 3.63770823,1.26658774 C3.87652612,1.18982485 4.11534401,1.1471788 4.37122032,1.1471788 C4.55033374,1.1471788 4.72944716,1.18129564 4.90003137,1.24100011 C5.07061557,1.30070458 5.23267057,1.38599669 5.38619636,1.479818 C5.53972214,1.58216853 5.68471872,1.69304826 5.82118609,1.81245721 C5.94912424,1.94039536 6.06853319,2.06833352 6.17941292,2.19627167 L5.7529524,2.56302772 C5.6676603,2.63979061 5.57383899,2.69096588 5.48001767,2.71655351 C5.38619636,2.75067035 5.28384583,2.76772877 5.1729661,2.76772877 C5.07914478,2.76772877 5.00238189,2.75919956 4.93414821,2.73361193 C4.86591452,2.7080243 4.80621005,2.68243667 4.74650558,2.65684903 C4.68680111,2.6312614 4.62709663,2.60567377 4.56739216,2.58008614 C4.50768769,2.56302772 4.439454,2.5459693 4.37122032,2.5459693 Z"></path>
                    </g>
                </g>
            </g>
        </g>
    </g>
</svg>