<svg xmlns="http://www.w3.org/2000/svg" id="Layer_1" version="1.2" viewBox="151.02 88.68 529.96 112.64">
  <g>
    <path d="M331.923,172.239c-3.185-.202-6.288-.846-9.311-1.935-3.023-1.088-5.674-2.569-7.951-4.444-2.278-1.874-3.981-4.081-5.109-6.62l10.702-4.596c.524,1.089,1.441,2.157,2.752,3.205,1.309,1.049,2.851,1.905,4.625,2.57,1.773.665,3.627.997,5.562.997,1.894,0,3.658-.272,5.291-.816,1.633-.544,2.972-1.38,4.021-2.51,1.048-1.128,1.572-2.479,1.572-4.051,0-1.773-.595-3.154-1.784-4.142-1.189-.987-2.67-1.743-4.444-2.267-1.774-.523-3.548-1.028-5.32-1.512-3.951-.886-7.569-2.106-10.854-3.658-3.286-1.551-5.895-3.546-7.83-5.986-1.934-2.438-2.902-5.431-2.902-8.979,0-3.87,1.048-7.226,3.144-10.067,2.095-2.842,4.847-5.028,8.253-6.56,3.406-1.532,7.044-2.297,10.914-2.297,4.837,0,9.271,1.028,13.302,3.084,4.03,2.055,7.114,4.878,9.251,8.464l-9.977,5.926c-.605-1.21-1.512-2.298-2.721-3.265-1.209-.968-2.58-1.743-4.112-2.328-1.532-.584-3.124-.916-4.777-.997-2.055-.08-3.96.151-5.714.695-1.753.544-3.154,1.401-4.202,2.57-1.049,1.169-1.572,2.66-1.572,4.474,0,1.774.624,3.094,1.874,3.96,1.249.867,2.831,1.563,4.746,2.086,1.914.524,3.879,1.109,5.895,1.753,3.587,1.129,6.953,2.509,10.097,4.142s5.684,3.638,7.619,6.016c1.934,2.379,2.862,5.282,2.781,8.707,0,3.789-1.14,7.115-3.416,9.977-2.278,2.862-5.23,5.039-8.858,6.53s-7.478,2.116-11.549,1.874h.002Z" fill="#015258"/>
    <path d="M390.475,172.663c-5.563,0-10.632-1.431-15.207-4.293s-8.223-6.701-10.944-11.518c-2.721-4.816-4.081-10.147-4.081-15.993,0-4.434.786-8.575,2.358-12.425,1.572-3.849,3.739-7.235,6.5-10.158,2.761-2.922,5.975-5.209,9.644-6.862,3.667-1.652,7.578-2.479,11.73-2.479,4.635,0,8.888.958,12.757,2.872,3.87,1.915,7.174,4.555,9.916,7.921,2.741,3.366,4.756,7.235,6.046,11.609,1.29,4.374,1.672,9.02,1.149,13.937h-46.617c.523,2.782,1.542,5.291,3.053,7.528,1.512,2.237,3.447,4.001,5.805,5.29,2.358,1.291,4.988,1.955,7.89,1.995,3.062,0,5.855-.765,8.374-2.298,2.519-1.531,4.585-3.647,6.197-6.349l12.758,2.963c-2.418,5.361-6.067,9.745-10.944,13.15-4.878,3.407-10.339,5.109-16.385,5.109h.001ZM373.303,135.659h34.344c-.403-2.902-1.421-5.532-3.053-7.89-1.633-2.358-3.668-4.232-6.107-5.623s-5.109-2.086-8.011-2.086c-2.863,0-5.513.686-7.951,2.056-2.439,1.371-4.455,3.235-6.047,5.593-1.593,2.358-2.651,5.009-3.174,7.951h-.001Z" fill="#015258"/>
    <path d="M468.979,153.919l11.246,6.107c-2.741,3.83-6.218,6.893-10.43,9.19-4.213,2.298-8.778,3.447-13.695,3.447-5.563,0-10.632-1.431-15.207-4.293s-8.223-6.701-10.944-11.518c-2.721-4.816-4.081-10.147-4.081-15.993,0-4.434.786-8.575,2.358-12.425,1.572-3.849,3.739-7.235,6.5-10.158,2.761-2.922,5.975-5.209,9.644-6.862,3.667-1.652,7.578-2.479,11.73-2.479,4.917,0,9.482,1.149,13.695,3.447,4.212,2.298,7.688,5.381,10.43,9.251l-11.246,6.107c-1.693-2.015-3.668-3.557-5.925-4.625-2.258-1.067-4.575-1.602-6.953-1.602-3.306,0-6.299.898-8.979,2.691-2.681,1.794-4.797,4.152-6.349,7.074-1.552,2.923-2.328,6.118-2.328,9.583,0,3.427.786,6.601,2.358,9.523,1.572,2.923,3.698,5.271,6.379,7.044,2.68,1.774,5.654,2.66,8.919,2.66,2.499,0,4.876-.564,7.134-1.693,2.257-1.128,4.172-2.62,5.744-4.474v-.002Z" fill="#015258"/>
    <path d="M520.746,123.203h-12.697l-.06,47.887h-12.576l.06-47.887h-9.614v-12.576h9.614l-.06-18.985h12.576l.06,18.985h12.697v12.576Z" fill="#015258"/>
    <path d="M534.034,101.86c-1.934,0-3.548-.625-4.837-1.874-1.29-1.249-1.934-2.821-1.934-4.716,0-1.853.644-3.416,1.934-4.686,1.29-1.27,2.882-1.905,4.777-1.905,1.854,0,3.426.635,4.716,1.905s1.935,2.833,1.935,4.686c0,1.895-.635,3.467-1.905,4.716-1.27,1.25-2.832,1.874-4.686,1.874ZM527.625,110.627h12.576v60.463h-12.576v-60.463Z" fill="#015258"/>
    <path d="M598.767,110.627h12.576v62.035c0,4.151-.876,7.981-2.63,11.488s-4.122,6.539-7.105,9.1c-2.983,2.559-6.399,4.544-10.248,5.956-3.85,1.411-7.87,2.116-12.062,2.116-4.233,0-8.305-.898-12.214-2.69-3.91-1.795-7.346-4.223-10.309-7.286-2.963-3.064-5.17-6.53-6.621-10.399l11.549-5.2c.806,2.499,2.106,4.716,3.9,6.651,1.793,1.935,3.89,3.466,6.288,4.595,2.398,1.128,4.867,1.693,7.407,1.693,2.499,0,4.907-.393,7.225-1.179,2.317-.786,4.393-1.885,6.228-3.295,1.834-1.412,3.295-3.105,4.383-5.079,1.089-1.975,1.633-4.132,1.633-6.47v-10.219c-1.975,3.064-4.515,5.533-7.618,7.407-3.104,1.874-6.712,2.811-10.823,2.811-4.273,0-8.304-.827-12.092-2.479-3.789-1.652-7.115-3.94-9.977-6.863-2.863-2.922-5.1-6.298-6.712-10.128-1.613-3.829-2.418-7.94-2.418-12.334s.806-8.515,2.418-12.365c1.612-3.849,3.849-7.235,6.712-10.158,2.862-2.922,6.187-5.209,9.977-6.862,3.788-1.652,7.819-2.479,12.092-2.479,4.111,0,7.719.938,10.823,2.812,3.104,1.874,5.643,4.363,7.618,7.467v-8.647h0ZM580.446,160.51c3.507,0,6.569-.897,9.19-2.691,2.62-1.793,4.656-4.181,6.107-7.165,1.451-2.983,2.177-6.248,2.177-9.795,0-3.628-.736-6.923-2.207-9.886-1.472-2.963-3.517-5.34-6.137-7.134-2.621-1.793-5.664-2.69-9.13-2.69-3.386,0-6.48.887-9.281,2.66-2.802,1.774-5.029,4.152-6.681,7.134-1.653,2.984-2.479,6.288-2.479,9.916s.836,6.934,2.509,9.916c1.672,2.983,3.909,5.351,6.712,7.104,2.801,1.753,5.874,2.631,9.221,2.631h0Z" fill="#015258"/>
    <path d="M650.752,172.663c-5.563,0-10.632-1.431-15.207-4.293-4.575-2.862-8.223-6.701-10.944-11.518-2.721-4.816-4.081-10.147-4.081-15.993,0-4.434.786-8.575,2.358-12.425,1.572-3.849,3.739-7.235,6.5-10.158,2.761-2.922,5.975-5.209,9.644-6.862,3.667-1.652,7.578-2.479,11.73-2.479,5.562,0,10.631,1.432,15.206,4.293,4.575,2.862,8.223,6.711,10.944,11.548s4.081,10.199,4.081,16.083c0,4.394-.786,8.506-2.358,12.334-1.572,3.83-3.739,7.206-6.5,10.128-2.761,2.923-5.966,5.21-9.614,6.863-3.649,1.652-7.568,2.479-11.76,2.479h.001ZM650.752,160.086c3.345,0,6.349-.886,9.009-2.66,2.66-1.773,4.766-4.121,6.318-7.044,1.551-2.922,2.328-6.096,2.328-9.523,0-3.507-.796-6.731-2.388-9.674-1.593-2.942-3.719-5.29-6.379-7.044s-5.623-2.631-8.888-2.631c-3.306,0-6.299.887-8.979,2.661-2.681,1.774-4.797,4.132-6.349,7.074-1.552,2.943-2.328,6.148-2.328,9.614,0,3.588.806,6.833,2.418,9.735s3.758,5.21,6.439,6.923c2.68,1.714,5.613,2.569,8.798,2.569h.001Z" fill="#015258"/>
  </g>
  <g>
    <path d="M277.034,171.117h-32.095c0-17.046-13.867-30.914-30.913-30.914v-32.095c34.743,0,63.008,28.266,63.008,63.009Z" fill="#06dfc7"/>
    <path d="M151.018,109.287h32.095c0,17.046,13.867,30.914,30.913,30.914v32.095c-34.743,0-63.008-28.266-63.008-63.009Z" fill="#06dfc7"/>
  </g>
</svg>