<?xml version="1.0" encoding="utf-8"?>
<!-- Generator: Adobe Illustrator 28.3.0, SVG Export Plug-In . SVG Version: 6.00 Build 0)  -->
<svg version="1.1" id="Layer_1" xmlns="http://www.w3.org/2000/svg" xmlns:xlink="http://www.w3.org/1999/xlink" x="0px" y="0px"
	 viewBox="0 0 389.8 131.3" style="enable-background:new 0 0 389.8 131.3;" xml:space="preserve">
<style type="text/css">
	.st0{fill:#225A93;}
	.st1{fill:#C82A2F;}
	.st2{fill:#2E74BC;}
	.st3{fill:#727E84;}
</style>
<g>
	<g>
		<g>
			<path class="st0" d="M179.5,44.1c-2-1.1-4.7-1.8-7.9-1.8c-7.5,0-12.1,3.5-13.9,5l2.7-16h-10.7l-7.4,43.9H153l4.1-23.9
				c2.7-2.1,5.9-3.8,9.5-3.8c1.8,0,3.4,0.6,4.5,1.5c2,1.7,1.6,4.4,1.1,7.3l-3.2,18.9h10.7l3.6-21.1
				C183.6,51.3,184.4,46.8,179.5,44.1z M207.8,41.9c-12.2,0-16.3,5.5-18.6,8.5l2.5,1.1c1.9-1.7,5.3-4.7,12.1-4.7
				c3.1,0,7.5,0.8,8.8,4.2c0.5,1.3,0.5,2.7,0.4,4.1l-1.6,9.9l-0.6,3.7c-2.3,1.1-5,2.3-8.8,2.3c-5.4,0-6.9-2.9-6.4-5.7
				c0.7-4,5.2-6,9.9-6c1.5,0,2.7,0.2,3.8,0.4l0.8-4.6c-2-0.4-4-0.7-6.6-0.7c-9.6,0-18,4.1-19.3,11.4c-1,5.7,3.6,10.2,11.9,10.2
				c7.6,0,12.2-3.1,14.2-4.5l-0.6,3.6h10.3l3.3-19.2c0.5-2.9,1.1-7.1-2.3-10.3C219,43.7,214.8,41.9,207.8,41.9z M301.4,72.4
				c-0.8,0-4,0-5.5-2.8c-0.6-1.1-0.9-2.4-0.4-5l2.5-14.5h11.7l1.1-6.8h-11.7l1.5-8.6h-10.7l-1.5,8.6h-11.2l-9.7,15.9l-1.7,3
				c-0.6-1.7-0.6-2-1.2-3.5L259,43.3h-3.5l-13.9,18.8c-0.3-1.6-0.4-1.9-0.7-3.4l-4.1-15.4h-11.2l9.8,32.1h3.9l14-18.5l7.7,18.5h3.9
				l16.5-25.3h5.9l-2.7,15.8c-0.5,2.8-0.5,5.6,2,7.8c2.7,2.4,6.9,2.6,8.9,2.6c5.3,0,8.4-1.4,11-2.5l-0.9-2
				C304.3,72.1,303.1,72.4,301.4,72.4z M323.5,55.2c-0.1,0.2-0.5,0.9-0.8,3c-0.1,0.8-0.2,1.4-0.2,1.9h28.5c0.5-3.5,1.4-9.4-3.5-13.9
				c-4.3-3.9-10.7-4.3-14.2-4.3c-14.5,0-23.5,7.6-25.1,16.9c-1.7,9.8,4.8,17.7,19.6,17.7c14.1,0,18.5-6.5,20.9-10l-2.5-1
				c-3.3,2.8-6.8,5.7-14.2,5.7c-10.9,0-12.3-6.4-12.5-9.8c-0.1-0.1-0.2-0.8,0.1-3c0.4-2.3,0.8-3.1,0.9-3.3c1.7-3.7,4-8,11.7-8
				c8,0,8,5.2,8,8.1L323.5,55.2L323.5,55.2z M133.5,34.7h-10.7l-5.3,31.2c-0.5,2.8-0.5,5.6,2,7.8c2.7,2.4,6.9,2.6,8.9,2.6
				c5.3,0,8.4-1.4,11-2.5l-0.9-2c-1.3,0.3-2.5,0.6-4.2,0.6c-0.8,0-4,0-5.5-2.8c-0.6-1.1-0.9-2.4-0.4-5l2.5-14.5h8.6l1.1-6.7H132
				L133.5,34.7z"/>
			<path class="st1" d="M63.9,13C41.3,13,23,31.3,23,53.8s18.3,40.8,40.8,40.8s40.8-18.3,40.8-40.8S86.4,13,63.9,13z M63.9,86.5
				c-18.1,0-32.7-14.6-32.7-32.7s14.6-32.7,32.7-32.7s32.7,14.6,32.7,32.7C96.6,71.9,81.9,86.5,63.9,86.5z M67.8,33.9H57.1
				l-5.3,31.2c-0.5,2.8-0.5,5.6,2,7.8c2.7,2.4,6.9,2.6,8.9,2.6c5.3,0,8.4-1.4,11-2.5l-0.9-2c-1.3,0.3-2.5,0.6-4.2,0.6
				c-0.8,0-4,0-5.5-2.8c-0.6-1.1-0.9-2.4-0.4-5l2.5-14.5h8.6l1.1-6.7h-8.6L67.8,33.9z"/>
			<path class="st0" d="M356.4,37.6h-2.7v6.9h-2.2v-6.9h-2.7V36h7.6L356.4,37.6L356.4,37.6z M366.7,44.6h-2.2v-5.8l-1.6,3.7h-1.5
				l-1.6-3.7v5.8h-2.1V36h2.6l1.9,4.3l1.9-4.3h2.6L366.7,44.6L366.7,44.6z"/>
		</g>
	</g>
	<g>
		<g>
			<path class="st2" d="M259.9,105.2c0-2.3,0.6-4.1,1.8-5.4c1.2-1.4,2.8-2,4.7-2c0.6,0,1.2,0.1,1.7,0.2c0.5,0.2,0.9,0.3,1.3,0.6
				c0.3,0.2,0.6,0.5,0.8,0.7c0.2,0.2,0.4,0.4,0.5,0.6l0.1,0.2h0.1c0-0.3-0.1-0.6-0.1-1v-6.6h2.7v20h-2.6V111l0-1h-0.1
				c0,0.1-0.1,0.2-0.2,0.3c-0.1,0.1-0.2,0.3-0.5,0.6c-0.3,0.3-0.5,0.6-0.9,0.8c-0.3,0.2-0.8,0.4-1.3,0.6c-0.6,0.2-1.2,0.3-1.8,0.3
				c-1.9,0-3.5-0.7-4.6-2.1C260.5,109.3,259.9,107.4,259.9,105.2z M262.7,105.2c0,1.5,0.4,2.8,1.1,3.7c0.7,0.9,1.7,1.4,2.9,1.4
				c1.2,0,2.1-0.4,2.9-1.3c0.8-0.9,1.2-2.1,1.2-3.9c0-1.4-0.4-2.6-1.1-3.6c-0.7-1-1.7-1.5-3-1.5c-1.2,0-2.1,0.5-2.9,1.4
				C263.1,102.4,262.7,103.6,262.7,105.2z"/>
			<path class="st2" d="M275.9,95.2v-2.8h2.8v2.8H275.9z M275.9,112.4V98h2.7v14.3H275.9z"/>
			<path class="st2" d="M282.8,115c1.2,0.6,2.5,1,3.9,1c1.4,0,2.4-0.3,3.3-1c0.8-0.7,1.2-1.7,1.2-3v-1l0-0.9h-0.1
				c-0.9,1.5-2.3,2.2-4.2,2.2c-1.9,0-3.5-0.7-4.7-2.1c-1.2-1.4-1.7-3.1-1.7-5.2c0-2.1,0.6-3.8,1.7-5.2c1.1-1.3,2.6-2,4.6-2
				c0.6,0,1.2,0.1,1.8,0.2c0.5,0.1,1,0.3,1.3,0.5c0.3,0.2,0.6,0.4,0.8,0.6c0.2,0.2,0.4,0.4,0.5,0.5l0.1,0.2h0.1c0-0.1,0-0.3,0-0.5
				V98h2.6v13.7c0,1.1-0.2,2.1-0.6,3c-0.4,0.9-1,1.5-1.7,2c-0.7,0.5-1.5,0.9-2.3,1.1c-0.8,0.2-1.7,0.4-2.7,0.4
				c-1.7,0-3.3-0.4-4.9-1.2L282.8,115z M287.5,109.8c1.1,0,2-0.4,2.7-1.2c0.7-0.8,1.1-2,1.1-3.8c0-3.2-1.3-4.8-4-4.8
				c-1.2,0-2.2,0.4-2.9,1.3c-0.7,0.8-1,2-1,3.5c0,1.5,0.4,2.7,1.1,3.6C285.2,109.4,286.2,109.8,287.5,109.8z"/>
			<path class="st2" d="M296.3,95.2v-2.8h2.8v2.8H296.3z M296.3,112.4V98h2.7v14.3H296.3z"/>
			<path class="st2" d="M301,105.2c0-2.1,0.7-3.9,2.2-5.3c1.4-1.4,3.3-2.1,5.5-2.1c1.1,0,2,0.2,2.9,0.5c0.9,0.3,1.5,0.7,1.9,1.1
				l0.5,0.5l-1.3,1.9c-0.1-0.1-0.3-0.3-0.5-0.5c-0.2-0.2-0.7-0.4-1.4-0.7c-0.7-0.3-1.4-0.5-2.1-0.5c-1.4,0-2.6,0.5-3.6,1.4
				c-0.9,1-1.4,2.2-1.4,3.6c0,1.5,0.5,2.7,1.4,3.7c1,1,2.2,1.5,3.6,1.5c0.8,0,1.6-0.2,2.3-0.5c0.7-0.3,1.3-0.6,1.6-1l0.5-0.5l1.1,2
				c-0.1,0.1-0.1,0.1-0.2,0.2c-0.1,0.1-0.3,0.3-0.7,0.6c-0.4,0.3-0.7,0.5-1.2,0.7c-0.4,0.2-0.9,0.4-1.6,0.6c-0.6,0.2-1.3,0.3-2,0.3
				c-2.2,0-4.1-0.7-5.5-2.1C301.7,109.2,301,107.4,301,105.2z"/>
			<path class="st2" d="M314.7,105.2c0-2.2,0.7-4.1,2-5.4c1.3-1.4,3.1-2.1,5.1-2.1c1.9,0,3.5,0.6,4.6,1.9c1.1,1.3,1.6,2.9,1.6,4.8
				l-0.1,1.2h-10.4c0.1,1.5,0.6,2.7,1.5,3.5c0.9,0.8,2.1,1.2,3.4,1.2c0.7,0,1.5-0.1,2.2-0.4c0.7-0.3,1.2-0.6,1.6-0.8l0.5-0.4l1.1,2
				c-0.2,0.2-0.4,0.3-0.7,0.6c-0.3,0.2-0.9,0.5-1.9,0.9c-1,0.4-2,0.6-3,0.6c-2.2,0-4-0.7-5.5-2.1
				C315.4,109.1,314.7,107.3,314.7,105.2z M317.7,103.5h7.6c0-1.2-0.4-2.1-1-2.7c-0.6-0.6-1.5-0.9-2.4-0.9c-1.1,0-2,0.3-2.8,1
				C318.3,101.5,317.8,102.4,317.7,103.5z"/>
			<path class="st2" d="M330.1,112.4V98h2.7v2.5l-0.1,1.1h0.1c0.3-1.1,0.9-2,1.7-2.7c0.8-0.7,1.7-1,2.8-1l0.7,0.1v2.7
				c-0.2-0.1-0.5-0.1-0.8-0.1c-0.9,0-1.7,0.3-2.4,0.9c-0.7,0.6-1.3,1.4-1.6,2.5c-0.2,0.7-0.3,1.6-0.3,2.6v5.9H330.1z"/>
			<path class="st2" d="M341.5,107.1v-6.7h-1.9v-2.2h2v-4.1h2.7v4.1h3.4v2.2h-3.4v6.4c0,0.5,0.1,1,0.2,1.4c0.2,0.4,0.3,0.7,0.6,0.9
				c0.2,0.2,0.5,0.4,0.8,0.5c0.3,0.1,0.6,0.2,0.8,0.3c0.2,0,0.5,0.1,0.7,0.1l0.6-0.1v2.4c-0.3,0-0.6,0.1-1,0.1c-0.5,0-0.9,0-1.3-0.1
				c-0.4-0.1-0.9-0.2-1.4-0.4c-0.5-0.2-1-0.5-1.4-0.9c-0.4-0.4-0.7-0.9-1-1.6C341.6,108.8,341.5,108,341.5,107.1z"/>
			<path class="st2" d="M349.4,92.4c-1.1,0-2.1,0.9-2.1,2.1c0,1.1,0.9,2.1,2.1,2.1c1.1,0,2.1-0.9,2.1-2.1
				C351.5,93.3,350.6,92.4,349.4,92.4 M349.4,96.1c-0.9,0-1.7-0.7-1.7-1.7c0-0.9,0.7-1.7,1.7-1.7c0.9,0,1.7,0.7,1.7,1.7
				C351.1,95.3,350.3,96.1,349.4,96.1"/>
			<g>
				<path class="st2" d="M348.7,95.6v-2.3h0.7c0.2,0,0.3,0,0.4,0.1c0.1,0,0.2,0.1,0.3,0.2c0.1,0.1,0.1,0.2,0.1,0.4
					c0,0.1,0,0.3-0.1,0.4c-0.1,0.1-0.2,0.2-0.3,0.2v0c0,0,0,0.1,0.1,0.1l0.5,0.9H350l-0.5-0.9H349v0.9H348.7z M349,94.4h0.5
					c0.1,0,0.2,0,0.3-0.1c0.1-0.1,0.1-0.2,0.1-0.3c0-0.2-0.1-0.3-0.2-0.4c-0.1,0-0.2-0.1-0.3-0.1H349V94.4z"/>
			</g>
		</g>
	</g>
	<g>
		<g>
			<path class="st3" d="M129.3,105.6c0,2.1-0.5,3.9-1.5,5.2c-1,1.3-2.3,2-4,2c-1.7,0-3.1-0.5-4-1.6v6.8h-2.4V98.4h2.2l0.1,1.6
				c1-1.2,2.3-1.8,4.1-1.8c1.7,0,3,0.6,4,1.9c1,1.3,1.5,3.1,1.5,5.3V105.6z M126.9,105.3c0-1.6-0.3-2.8-1-3.8s-1.6-1.4-2.8-1.4
				c-1.5,0-2.6,0.6-3.3,1.9v6.7c0.7,1.3,1.8,1.9,3.3,1.9c1.2,0,2.1-0.5,2.8-1.4C126.5,108.5,126.9,107.1,126.9,105.3z"/>
			<path class="st3" d="M131.6,105.3c0-1.4,0.3-2.6,0.8-3.7c0.5-1.1,1.3-2,2.3-2.6s2.1-0.9,3.3-0.9c1.9,0,3.5,0.7,4.7,2
				c1.2,1.3,1.8,3.1,1.8,5.3v0.2c0,1.4-0.3,2.6-0.8,3.7c-0.5,1.1-1.3,1.9-2.3,2.5c-1,0.6-2.1,0.9-3.4,0.9c-1.9,0-3.5-0.7-4.6-2
				c-1.2-1.3-1.8-3.1-1.8-5.3V105.3z M134,105.6c0,1.6,0.4,2.8,1.1,3.8c0.7,0.9,1.7,1.4,2.9,1.4c1.2,0,2.2-0.5,2.9-1.4
				c0.7-1,1.1-2.3,1.1-4c0-1.5-0.4-2.8-1.1-3.8c-0.7-1-1.7-1.4-2.9-1.4c-1.2,0-2.2,0.5-2.9,1.4C134.3,102.5,134,103.8,134,105.6z"/>
			<path class="st3" d="M159.8,109.2l2.7-10.8h2.4l-4.1,14.1h-2l-3.4-10.7l-3.3,10.7h-2L146,98.4h2.4l2.8,10.6l3.3-10.6h1.9
				L159.8,109.2z"/>
			<path class="st3" d="M173.1,112.7c-1.9,0-3.5-0.6-4.7-1.9c-1.2-1.3-1.8-2.9-1.8-5v-0.4c0-1.4,0.3-2.6,0.8-3.7
				c0.5-1.1,1.3-2,2.2-2.6c1-0.6,2-0.9,3.1-0.9c1.8,0,3.3,0.6,4.3,1.8c1,1.2,1.5,2.9,1.5,5.2v1H169c0,1.4,0.4,2.5,1.2,3.4
				c0.8,0.9,1.8,1.3,3,1.3c0.9,0,1.6-0.2,2.2-0.5s1.1-0.8,1.6-1.4l1.5,1.1C177.2,111.8,175.4,112.7,173.1,112.7z M172.8,100.1
				c-1,0-1.8,0.4-2.5,1.1c-0.7,0.7-1.1,1.7-1.2,3h7.1v-0.2c-0.1-1.2-0.4-2.2-1-2.8C174.6,100.4,173.8,100.1,172.8,100.1z"/>
			<path class="st3" d="M188,100.5c-0.4-0.1-0.8-0.1-1.2-0.1c-1.6,0-2.7,0.7-3.2,2v10h-2.4V98.4h2.3l0,1.6c0.8-1.3,1.9-1.9,3.4-1.9
				c0.5,0,0.8,0.1,1.1,0.2V100.5z"/>
			<path class="st3" d="M195.7,112.7c-1.9,0-3.5-0.6-4.7-1.9c-1.2-1.3-1.8-2.9-1.8-5v-0.4c0-1.4,0.3-2.6,0.8-3.7
				c0.5-1.1,1.3-2,2.2-2.6c1-0.6,2-0.9,3.1-0.9c1.8,0,3.3,0.6,4.3,1.8c1,1.2,1.5,2.9,1.5,5.2v1h-9.6c0,1.4,0.4,2.5,1.2,3.4
				c0.8,0.9,1.8,1.3,3,1.3c0.9,0,1.6-0.2,2.2-0.5s1.1-0.8,1.6-1.4l1.5,1.1C199.9,111.8,198.1,112.7,195.7,112.7z M195.4,100.1
				c-1,0-1.8,0.4-2.5,1.1c-0.7,0.7-1.1,1.7-1.2,3h7.1v-0.2c-0.1-1.2-0.4-2.2-1-2.8S196.4,100.1,195.4,100.1z"/>
			<path class="st3" d="M203.3,105.3c0-2.2,0.5-3.9,1.5-5.2c1-1.3,2.4-2,4-2c1.7,0,3,0.6,3.9,1.7v-7.4h2.4v20H213l-0.1-1.5
				c-1,1.2-2.3,1.8-4,1.8c-1.6,0-3-0.7-4-2c-1-1.3-1.5-3.1-1.5-5.2V105.3z M205.7,105.6c0,1.6,0.3,2.9,1,3.8
				c0.7,0.9,1.6,1.4,2.7,1.4c1.5,0,2.6-0.7,3.3-2.1v-6.5c-0.7-1.3-1.8-2-3.3-2c-1.2,0-2.1,0.5-2.8,1.4
				C206,102.4,205.7,103.8,205.7,105.6z"/>
			<path class="st3" d="M237.2,105.6c0,2.2-0.5,3.9-1.5,5.2c-1,1.3-2.3,2-4,2c-1.8,0-3.2-0.6-4.1-1.9l-0.1,1.6h-2.2v-20h2.4v7.5
				c1-1.2,2.3-1.8,4-1.8s3.1,0.6,4,1.9c1,1.3,1.5,3.1,1.5,5.3V105.6z M234.8,105.3c0-1.6-0.3-2.9-1-3.8c-0.6-0.9-1.5-1.3-2.7-1.3
				c-1.6,0-2.7,0.7-3.4,2.2v6.1c0.7,1.5,1.9,2.2,3.5,2.2c1.2,0,2.1-0.4,2.7-1.3C234.5,108.5,234.8,107.1,234.8,105.3z"/>
			<path class="st3" d="M244.6,108.9l3.3-10.6h2.6l-5.7,16.3c-0.9,2.3-2.3,3.5-4.2,3.5l-0.5,0l-0.9-0.2v-2l0.7,0.1
				c0.8,0,1.5-0.2,1.9-0.5c0.5-0.3,0.8-0.9,1.1-1.8l0.5-1.4l-5-13.9h2.6L244.6,108.9z"/>
		</g>
	</g>
</g>
</svg>
