<?xml version="1.0" encoding="UTF-8" standalone="no"?>
<!-- Created with Inkscape (http://www.inkscape.org/) -->

<svg
   xmlns:dc="http://purl.org/dc/elements/1.1/"
   xmlns:cc="http://creativecommons.org/ns#"
   xmlns:rdf="http://www.w3.org/1999/02/22-rdf-syntax-ns#"
   xmlns:svg="http://www.w3.org/2000/svg"
   xmlns="http://www.w3.org/2000/svg"
   xmlns:sodipodi="http://sodipodi.sourceforge.net/DTD/sodipodi-0.dtd"
   xmlns:inkscape="http://www.inkscape.org/namespaces/inkscape"
   version="1.1"
   id="svg2"
   xml:space="preserve"
   width="699"
   height="699"
   viewBox="0 0 699 699"
   sodipodi:docname="jbs-logo.svg"
   inkscape:version="0.92.0 r15299"
   inkscape:export-filename="C:\Users\suitedoalex\Downloads\jbs-logo-0.png"
   inkscape:export-xdpi="562.54077"
   inkscape:export-ydpi="562.54077"><metadata
     id="metadata8"><rdf:RDF><cc:Work
         rdf:about=""><dc:format>image/svg+xml</dc:format><dc:type
           rdf:resource="http://purl.org/dc/dcmitype/StillImage" /><dc:title></dc:title></cc:Work></rdf:RDF></metadata><defs
     id="defs6"><clipPath
       clipPathUnits="userSpaceOnUse"
       id="clipPath20"><path
         d="M 0,0 H 1080 V 1872.926 H 0 Z"
         id="path18"
         inkscape:connector-curvature="0" /></clipPath><clipPath
       clipPathUnits="userSpaceOnUse"
       id="clipPath28"><path
         d="M -176.662,2108.39 H 1233.45 V -241.784 H -176.662 Z"
         id="path26"
         inkscape:connector-curvature="0" /></clipPath><linearGradient
       x1="0"
       y1="0"
       x2="1"
       y2="0"
       gradientUnits="userSpaceOnUse"
       gradientTransform="matrix(0,-626.85181,-626.85181,0,-82.240501,2108.3867)"
       spreadMethod="pad"
       id="linearGradient38"><stop
         style="stop-opacity:1;stop-color:#173d6e"
         offset="0"
         id="stop34" /><stop
         style="stop-opacity:1;stop-color:#86a828"
         offset="1"
         id="stop36" /></linearGradient><linearGradient
       x1="0"
       y1="0"
       x2="1"
       y2="0"
       gradientUnits="userSpaceOnUse"
       gradientTransform="matrix(0,-754.4198,-754.4198,0,-32.865505,2108.3867)"
       spreadMethod="pad"
       id="linearGradient48"><stop
         style="stop-opacity:1;stop-color:#173d6e"
         offset="0"
         id="stop44" /><stop
         style="stop-opacity:1;stop-color:#86a828"
         offset="1"
         id="stop46" /></linearGradient><linearGradient
       x1="0"
       y1="0"
       x2="1"
       y2="0"
       gradientUnits="userSpaceOnUse"
       gradientTransform="matrix(0,-811.47168,-811.47168,0,-4.5565033,2108.3867)"
       spreadMethod="pad"
       id="linearGradient58"><stop
         style="stop-opacity:1;stop-color:#173d6e"
         offset="0"
         id="stop54" /><stop
         style="stop-opacity:1;stop-color:#86a828"
         offset="1"
         id="stop56" /></linearGradient><linearGradient
       x1="0"
       y1="0"
       x2="1"
       y2="0"
       gradientUnits="userSpaceOnUse"
       gradientTransform="matrix(0,-877.59662,-877.59662,0,19.878487,2108.387)"
       spreadMethod="pad"
       id="linearGradient68"><stop
         style="stop-opacity:1;stop-color:#173d6e"
         offset="0"
         id="stop64" /><stop
         style="stop-opacity:1;stop-color:#86a828"
         offset="1"
         id="stop66" /></linearGradient><linearGradient
       x1="0"
       y1="0"
       x2="1"
       y2="0"
       gradientUnits="userSpaceOnUse"
       gradientTransform="matrix(0,-940.06329,-940.06329,0,67.591003,2108.387)"
       spreadMethod="pad"
       id="linearGradient78"><stop
         style="stop-opacity:1;stop-color:#173d6e"
         offset="0"
         id="stop74" /><stop
         style="stop-opacity:1;stop-color:#86a828"
         offset="1"
         id="stop76" /></linearGradient><linearGradient
       x1="0"
       y1="0"
       x2="1"
       y2="0"
       gradientUnits="userSpaceOnUse"
       gradientTransform="matrix(0,-1065.4152,-1065.4152,0,117.16496,2108.387)"
       spreadMethod="pad"
       id="linearGradient88"><stop
         style="stop-opacity:1;stop-color:#173d6e"
         offset="0"
         id="stop84" /><stop
         style="stop-opacity:1;stop-color:#86a828"
         offset="1"
         id="stop86" /></linearGradient><linearGradient
       x1="0"
       y1="0"
       x2="1"
       y2="0"
       gradientUnits="userSpaceOnUse"
       gradientTransform="matrix(0,-1266.8176,-1266.8176,0,143.70801,2108.387)"
       spreadMethod="pad"
       id="linearGradient98"><stop
         style="stop-opacity:1;stop-color:#173d6e"
         offset="0"
         id="stop94" /><stop
         style="stop-opacity:1;stop-color:#86a828"
         offset="1"
         id="stop96" /></linearGradient><linearGradient
       x1="0"
       y1="0"
       x2="1"
       y2="0"
       gradientUnits="userSpaceOnUse"
       gradientTransform="matrix(0,-1327.6528,-1327.6528,0,161.28145,2108.3867)"
       spreadMethod="pad"
       id="linearGradient108"><stop
         style="stop-opacity:1;stop-color:#173d6e"
         offset="0"
         id="stop104" /><stop
         style="stop-opacity:1;stop-color:#86a828"
         offset="1"
         id="stop106" /></linearGradient><linearGradient
       x1="0"
       y1="0"
       x2="1"
       y2="0"
       gradientUnits="userSpaceOnUse"
       gradientTransform="matrix(0,-1374.6377,-1374.6377,0,185.13098,2108.387)"
       spreadMethod="pad"
       id="linearGradient118"><stop
         style="stop-opacity:1;stop-color:#173d6e"
         offset="0"
         id="stop114" /><stop
         style="stop-opacity:1;stop-color:#86a828"
         offset="1"
         id="stop116" /></linearGradient><linearGradient
       x1="0"
       y1="0"
       x2="1"
       y2="0"
       gradientUnits="userSpaceOnUse"
       gradientTransform="matrix(0,-1446.526,-1446.526,0,288.34845,2108.387)"
       spreadMethod="pad"
       id="linearGradient128"><stop
         style="stop-opacity:1;stop-color:#173d6e"
         offset="0"
         id="stop124" /><stop
         style="stop-opacity:1;stop-color:#86a828"
         offset="1"
         id="stop126" /></linearGradient><linearGradient
       x1="0"
       y1="0"
       x2="1"
       y2="0"
       gradientUnits="userSpaceOnUse"
       gradientTransform="matrix(0,-1480.6223,-1480.6223,0,441.40244,2108.3867)"
       spreadMethod="pad"
       id="linearGradient138"><stop
         style="stop-opacity:1;stop-color:#173d6e"
         offset="0"
         id="stop134" /><stop
         style="stop-opacity:1;stop-color:#86a828"
         offset="1"
         id="stop136" /></linearGradient><linearGradient
       x1="0"
       y1="0"
       x2="1"
       y2="0"
       gradientUnits="userSpaceOnUse"
       gradientTransform="matrix(0,-762.68909,-762.68909,0,872.59601,520.90594)"
       spreadMethod="pad"
       id="linearGradient148"><stop
         style="stop-opacity:1;stop-color:#173d6e"
         offset="0"
         id="stop144" /><stop
         style="stop-opacity:1;stop-color:#86a828"
         offset="1"
         id="stop146" /></linearGradient><linearGradient
       x1="0"
       y1="0"
       x2="1"
       y2="0"
       gradientUnits="userSpaceOnUse"
       gradientTransform="matrix(0,-804.81793,-804.81793,0,850.16803,563.03497)"
       spreadMethod="pad"
       id="linearGradient158"><stop
         style="stop-opacity:1;stop-color:#173d6e"
         offset="0"
         id="stop154" /><stop
         style="stop-opacity:1;stop-color:#86a828"
         offset="1"
         id="stop156" /></linearGradient><linearGradient
       x1="0"
       y1="0"
       x2="1"
       y2="0"
       gradientUnits="userSpaceOnUse"
       gradientTransform="matrix(0,-1517.9246,-1517.9246,0,481.323,2108.3867)"
       spreadMethod="pad"
       id="linearGradient168"><stop
         style="stop-opacity:1;stop-color:#173d6e"
         offset="0"
         id="stop164" /><stop
         style="stop-opacity:1;stop-color:#86a828"
         offset="1"
         id="stop166" /></linearGradient><linearGradient
       x1="0"
       y1="0"
       x2="1"
       y2="0"
       gradientUnits="userSpaceOnUse"
       gradientTransform="matrix(0,-1222.8262,-1222.8262,0,534.54199,981.04303)"
       spreadMethod="pad"
       id="linearGradient178"><stop
         style="stop-opacity:1;stop-color:#173d6e"
         offset="0"
         id="stop174" /><stop
         style="stop-opacity:1;stop-color:#86a828"
         offset="1"
         id="stop176" /></linearGradient><linearGradient
       x1="0"
       y1="0"
       x2="1"
       y2="0"
       gradientUnits="userSpaceOnUse"
       gradientTransform="matrix(0,-683.31091,-683.31091,0,288.94901,441.52625)"
       spreadMethod="pad"
       id="linearGradient188"><stop
         style="stop-opacity:1;stop-color:#173d6e"
         offset="0"
         id="stop184" /><stop
         style="stop-opacity:1;stop-color:#86a828"
         offset="1"
         id="stop186" /></linearGradient><linearGradient
       x1="0"
       y1="0"
       x2="1"
       y2="0"
       gradientUnits="userSpaceOnUse"
       gradientTransform="matrix(0,-1381.9619,-1381.9619,0,617.44299,1140.1788)"
       spreadMethod="pad"
       id="linearGradient198"><stop
         style="stop-opacity:1;stop-color:#173d6e"
         offset="0"
         id="stop194" /><stop
         style="stop-opacity:1;stop-color:#86a828"
         offset="1"
         id="stop196" /></linearGradient><linearGradient
       x1="0"
       y1="0"
       x2="1"
       y2="0"
       gradientUnits="userSpaceOnUse"
       gradientTransform="matrix(0,-1174.0841,-1174.0841,0,808.99298,932.30109)"
       spreadMethod="pad"
       id="linearGradient208"><stop
         style="stop-opacity:1;stop-color:#173d6e"
         offset="0"
         id="stop204" /><stop
         style="stop-opacity:1;stop-color:#86a828"
         offset="1"
         id="stop206" /></linearGradient><linearGradient
       x1="0"
       y1="0"
       x2="1"
       y2="0"
       gradientUnits="userSpaceOnUse"
       gradientTransform="matrix(0,-665.44873,-665.44873,0,1119.5273,2108.3867)"
       spreadMethod="pad"
       id="linearGradient218"><stop
         style="stop-opacity:1;stop-color:#173d6e"
         offset="0"
         id="stop214" /><stop
         style="stop-opacity:1;stop-color:#86a828"
         offset="1"
         id="stop216" /></linearGradient><linearGradient
       x1="0"
       y1="0"
       x2="1"
       y2="0"
       gradientUnits="userSpaceOnUse"
       gradientTransform="matrix(0,-1470.7738,-1470.7738,0,563.07043,1228.9908)"
       spreadMethod="pad"
       id="linearGradient228"><stop
         style="stop-opacity:1;stop-color:#173d6e"
         offset="0"
         id="stop224" /><stop
         style="stop-opacity:1;stop-color:#86a828"
         offset="1"
         id="stop226" /></linearGradient><linearGradient
       x1="0"
       y1="0"
       x2="1"
       y2="0"
       gradientUnits="userSpaceOnUse"
       gradientTransform="matrix(0,-987.79602,-987.79602,0,821.78601,746.01294)"
       spreadMethod="pad"
       id="linearGradient238"><stop
         style="stop-opacity:1;stop-color:#173d6e"
         offset="0"
         id="stop234" /><stop
         style="stop-opacity:1;stop-color:#86a828"
         offset="1"
         id="stop236" /></linearGradient><linearGradient
       x1="0"
       y1="0"
       x2="1"
       y2="0"
       gradientUnits="userSpaceOnUse"
       gradientTransform="matrix(0,-657.82104,-657.82104,0,917.62891,416.03793)"
       spreadMethod="pad"
       id="linearGradient248"><stop
         style="stop-opacity:1;stop-color:#173d6e"
         offset="0"
         id="stop244" /><stop
         style="stop-opacity:1;stop-color:#86a828"
         offset="1"
         id="stop246" /></linearGradient><linearGradient
       x1="0"
       y1="0"
       x2="1"
       y2="0"
       gradientUnits="userSpaceOnUse"
       gradientTransform="matrix(0,-709.23907,-709.23907,0,896.30188,467.45599)"
       spreadMethod="pad"
       id="linearGradient258"><stop
         style="stop-opacity:1;stop-color:#173d6e"
         offset="0"
         id="stop254" /><stop
         style="stop-opacity:1;stop-color:#86a828"
         offset="1"
         id="stop256" /></linearGradient><linearGradient
       x1="0"
       y1="0"
       x2="1"
       y2="0"
       gradientUnits="userSpaceOnUse"
       gradientTransform="matrix(0,-576.30603,-576.30603,0,962.10394,334.52301)"
       spreadMethod="pad"
       id="linearGradient268"><stop
         style="stop-opacity:1;stop-color:#173d6e"
         offset="0"
         id="stop264" /><stop
         style="stop-opacity:1;stop-color:#86a828"
         offset="1"
         id="stop266" /></linearGradient><linearGradient
       x1="0"
       y1="0"
       x2="1"
       y2="0"
       gradientUnits="userSpaceOnUse"
       gradientTransform="matrix(0,-518.76312,-518.76312,0,976.06799,276.98001)"
       spreadMethod="pad"
       id="linearGradient278"><stop
         style="stop-opacity:1;stop-color:#173d6e"
         offset="0"
         id="stop274" /><stop
         style="stop-opacity:1;stop-color:#86a828"
         offset="1"
         id="stop276" /></linearGradient><linearGradient
       x1="0"
       y1="0"
       x2="1"
       y2="0"
       gradientUnits="userSpaceOnUse"
       gradientTransform="matrix(0,-466.86002,-466.86002,0,1001.107,225.077)"
       spreadMethod="pad"
       id="linearGradient288"><stop
         style="stop-opacity:1;stop-color:#173d6e"
         offset="0"
         id="stop284" /><stop
         style="stop-opacity:1;stop-color:#86a828"
         offset="1"
         id="stop286" /></linearGradient><linearGradient
       x1="0"
       y1="0"
       x2="1"
       y2="0"
       gradientUnits="userSpaceOnUse"
       gradientTransform="matrix(0,-414.82599,-414.82599,0,1016.8539,173.04298)"
       spreadMethod="pad"
       id="linearGradient298"><stop
         style="stop-opacity:1;stop-color:#173d6e"
         offset="0"
         id="stop294" /><stop
         style="stop-opacity:1;stop-color:#86a828"
         offset="1"
         id="stop296" /></linearGradient><linearGradient
       x1="0"
       y1="0"
       x2="1"
       y2="0"
       gradientUnits="userSpaceOnUse"
       gradientTransform="matrix(0,-308.99301,-308.99301,0,1082.4425,67.209991)"
       spreadMethod="pad"
       id="linearGradient308"><stop
         style="stop-opacity:1;stop-color:#173d6e"
         offset="0"
         id="stop304" /><stop
         style="stop-opacity:1;stop-color:#86a828"
         offset="1"
         id="stop306" /></linearGradient><linearGradient
       x1="0"
       y1="0"
       x2="1"
       y2="0"
       gradientUnits="userSpaceOnUse"
       gradientTransform="matrix(0,-335.09702,-335.09702,0,1061.5015,93.314003)"
       spreadMethod="pad"
       id="linearGradient318"><stop
         style="stop-opacity:1;stop-color:#173d6e"
         offset="0"
         id="stop314" /><stop
         style="stop-opacity:1;stop-color:#86a828"
         offset="1"
         id="stop316" /></linearGradient><linearGradient
       x1="0"
       y1="0"
       x2="1"
       y2="0"
       gradientUnits="userSpaceOnUse"
       gradientTransform="matrix(0,-694.90356,-694.90356,0,-53.666996,2108.387)"
       spreadMethod="pad"
       id="linearGradient328"><stop
         style="stop-opacity:1;stop-color:#173d6e"
         offset="0"
         id="stop324" /><stop
         style="stop-opacity:1;stop-color:#86a828"
         offset="1"
         id="stop326" /></linearGradient><linearGradient
       x1="0"
       y1="0"
       x2="1"
       y2="0"
       gradientUnits="userSpaceOnUse"
       gradientTransform="matrix(0,-1017.1732,-1017.1732,0,90.570976,2108.3867)"
       spreadMethod="pad"
       id="linearGradient338"><stop
         style="stop-opacity:1;stop-color:#173d6e"
         offset="0"
         id="stop334" /><stop
         style="stop-opacity:1;stop-color:#86a828"
         offset="1"
         id="stop336" /></linearGradient><linearGradient
       x1="0"
       y1="0"
       x2="1"
       y2="0"
       gradientUnits="userSpaceOnUse"
       gradientTransform="matrix(0,-1401.4712,-1401.4712,0,222.97545,2108.3867)"
       spreadMethod="pad"
       id="linearGradient348"><stop
         style="stop-opacity:1;stop-color:#173d6e"
         offset="0"
         id="stop344" /><stop
         style="stop-opacity:1;stop-color:#86a828"
         offset="1"
         id="stop346" /></linearGradient><linearGradient
       x1="0"
       y1="0"
       x2="1"
       y2="0"
       gradientUnits="userSpaceOnUse"
       gradientTransform="matrix(0,-866.73901,-866.73901,0,831.91992,624.95599)"
       spreadMethod="pad"
       id="linearGradient358"><stop
         style="stop-opacity:1;stop-color:#173d6e"
         offset="0"
         id="stop354" /><stop
         style="stop-opacity:1;stop-color:#86a828"
         offset="1"
         id="stop356" /></linearGradient><linearGradient
       x1="0"
       y1="0"
       x2="1"
       y2="0"
       gradientUnits="userSpaceOnUse"
       gradientTransform="matrix(0,-723.79504,-723.79504,0,1039.683,2108.387)"
       spreadMethod="pad"
       id="linearGradient368"><stop
         style="stop-opacity:1;stop-color:#173d6e"
         offset="0"
         id="stop364" /><stop
         style="stop-opacity:1;stop-color:#86a828"
         offset="1"
         id="stop366" /></linearGradient><linearGradient
       x1="0"
       y1="0"
       x2="1"
       y2="0"
       gradientUnits="userSpaceOnUse"
       gradientTransform="matrix(0,-821.96796,-821.96796,0,528.3905,1297.2629)"
       spreadMethod="pad"
       id="linearGradient378"><stop
         style="stop-opacity:1;stop-color:#173d6e"
         offset="0"
         id="stop374" /><stop
         style="stop-opacity:1;stop-color:#86a828"
         offset="1"
         id="stop376" /></linearGradient><linearGradient
       x1="0"
       y1="0"
       x2="1"
       y2="0"
       gradientUnits="userSpaceOnUse"
       gradientTransform="matrix(0,-621.67609,-621.67609,0,940.77545,379.89301)"
       spreadMethod="pad"
       id="linearGradient388"><stop
         style="stop-opacity:1;stop-color:#173d6e"
         offset="0"
         id="stop384" /><stop
         style="stop-opacity:1;stop-color:#86a828"
         offset="1"
         id="stop386" /></linearGradient><linearGradient
       x1="0"
       y1="0"
       x2="1"
       y2="0"
       gradientUnits="userSpaceOnUse"
       gradientTransform="matrix(0,-380.94598,-380.94598,0,1038.506,139.16299)"
       spreadMethod="pad"
       id="linearGradient398"><stop
         style="stop-opacity:1;stop-color:#173d6e"
         offset="0"
         id="stop394" /><stop
         style="stop-opacity:1;stop-color:#86a828"
         offset="1"
         id="stop396" /></linearGradient><linearGradient
       x1="0"
       y1="0"
       x2="1"
       y2="0"
       gradientUnits="userSpaceOnUse"
       gradientTransform="matrix(0,-1569.9517,-1569.9517,0,501.98352,2108.3867)"
       spreadMethod="pad"
       id="linearGradient408"><stop
         style="stop-opacity:1;stop-color:#173d6e"
         offset="0"
         id="stop404" /><stop
         style="stop-opacity:1;stop-color:#86a828"
         offset="1"
         id="stop406" /></linearGradient><clipPath
       clipPathUnits="userSpaceOnUse"
       id="clipPath800"><path
         d="M 534.505,702.614 C 505.759,699.32 478.218,683.69 461.038,655.605 v 0 L 109.31,80.689 C 92.765,53.65 90.709,25.035 98.495,0 v 0 h 267.167 l 128.95,61.606 c 27.936,13.35 60.485,12.961 88.094,-1.049 v 0 L 702.061,0 h 279.924 c 4.566,21.991 1.575,46.198 -11.913,69.521 v 0 L 632.4,653.48 c -16.958,29.327 -45.205,45.744 -74.768,49.134 v 0 z"
         id="path798"
         inkscape:connector-curvature="0" /></clipPath><clipPath
       clipPathUnits="userSpaceOnUse"
       id="clipPath816"><path
         d="M 0,0 H 1080 V 1919.99 H 0 Z"
         id="path814"
         inkscape:connector-curvature="0" /></clipPath><clipPath
       clipPathUnits="userSpaceOnUse"
       id="clipPath828"><path
         d="M 94.128,702.614 H 983.98 V -81.2486 H 94.128 Z"
         id="path826"
         inkscape:connector-curvature="0" /></clipPath><clipPath
       clipPathUnits="userSpaceOnUse"
       id="clipPath832"><path
         d="M 94.128,-81.248 H 983.98 V 702.614 H 94.128 Z"
         id="path830"
         inkscape:connector-curvature="0" /></clipPath><clipPath
       clipPathUnits="userSpaceOnUse"
       id="clipPath890"><path
         d="M 0,1919.99 H 1080 V 0 H 0 Z"
         id="path888"
         inkscape:connector-curvature="0" /></clipPath><clipPath
       clipPathUnits="userSpaceOnUse"
       id="clipPath902"><path
         d="m 668.329,1609.294 c 0.274,-1.435 0.52,-2.88 0.736,-4.331 v 0 c 2.209,-14.755 1.432,-29.627 -2.313,-44.201 v 0 c -1.596,-6.208 -3.687,-12.204 -6.265,-17.958 v 0 c -3.431,-7.667 -7.721,-14.907 -12.836,-21.65 v 0 h 4.031 c 1.724,2.33 3.356,4.714 4.889,7.156 v 0 c 6.197,9.852 10.807,20.594 13.75,32.044 v 0 c 3.8,14.787 4.588,29.878 2.346,44.853 v 0 c -0.205,1.369 -0.433,2.728 -0.69,4.087 v 0 z"
         id="path900"
         inkscape:connector-curvature="0" /></clipPath><linearGradient
       x1="0"
       y1="0"
       x2="1"
       y2="0"
       gradientUnits="userSpaceOnUse"
       gradientTransform="matrix(26.65278,82.919762,82.919762,-26.65278,651.14075,1527.9153)"
       spreadMethod="pad"
       id="linearGradient920"><stop
         style="stop-opacity:1;stop-color:#ffffff"
         offset="0"
         id="stop912" /><stop
         style="stop-opacity:1;stop-color:#ffffff"
         offset="0.500558"
         id="stop914" /><stop
         style="stop-opacity:0;stop-color:#ffffff"
         offset="0.901731"
         id="stop916" /><stop
         style="stop-opacity:0;stop-color:#ffffff"
         offset="1"
         id="stop918" /></linearGradient><mask
       maskUnits="userSpaceOnUse"
       x="0"
       y="0"
       width="1"
       height="1"
       id="mask922"><g
         id="g932"><g
           id="g930"><g
             id="g928"><g
               id="g926"><path
                 d="M -32768,32767 H 32767 V -32768 H -32768 Z"
                 style="fill:url(#linearGradient920);stroke:none"
                 id="path924"
                 inkscape:connector-curvature="0" /></g></g></g></g></mask><linearGradient
       x1="0"
       y1="0"
       x2="1"
       y2="0"
       gradientUnits="userSpaceOnUse"
       gradientTransform="matrix(26.65278,82.919762,82.919762,-26.65278,651.14075,1527.9153)"
       spreadMethod="pad"
       id="linearGradient946"><stop
         style="stop-opacity:1;stop-color:#b4cc04"
         offset="0"
         id="stop938" /><stop
         style="stop-opacity:1;stop-color:#b4cc04"
         offset="0.500558"
         id="stop940" /><stop
         style="stop-opacity:1;stop-color:#ffffff"
         offset="0.901731"
         id="stop942" /><stop
         style="stop-opacity:1;stop-color:#ffffff"
         offset="1"
         id="stop944" /></linearGradient><linearGradient
       x1="0"
       y1="0"
       x2="1"
       y2="0"
       gradientUnits="userSpaceOnUse"
       gradientTransform="matrix(0,-98.682205,-98.682205,0,652.60742,1620.8787)"
       spreadMethod="pad"
       id="linearGradient972"><stop
         style="stop-opacity:1;stop-color:#004f9f"
         offset="0"
         id="stop962" /><stop
         style="stop-opacity:1;stop-color:#004f9f"
         offset="0.219597"
         id="stop964" /><stop
         style="stop-opacity:1;stop-color:#36a9e1"
         offset="0.646419"
         id="stop966" /><stop
         style="stop-opacity:1;stop-color:#5bc5f2"
         offset="0.970651"
         id="stop968" /><stop
         style="stop-opacity:1;stop-color:#5bc5f2"
         offset="1"
         id="stop970" /></linearGradient><clipPath
       clipPathUnits="userSpaceOnUse"
       id="clipPath982"><path
         d="M 0,1919.99 H 1080 V 0 H 0 Z"
         id="path980"
         inkscape:connector-curvature="0" /></clipPath><clipPath
       clipPathUnits="userSpaceOnUse"
       id="clipPath994"><path
         d="m 428.318,1615.846 c -1.724,-2.329 -3.356,-4.713 -4.889,-7.154 v 0 c -6.197,-9.853 -10.807,-20.594 -13.75,-32.045 v 0 c -3.8,-14.788 -4.588,-29.879 -2.346,-44.852 v 0 c 0.205,-1.369 0.433,-2.73 0.69,-4.087 v 0 h 3.648 c -0.274,1.433 -0.52,2.879 -0.736,4.33 v 0 c -2.209,14.755 -1.432,29.627 2.313,44.201 v 0 c 1.596,6.209 3.687,12.203 6.265,17.957 v 0 c 3.431,7.668 7.721,14.909 12.836,21.65 v 0 z"
         id="path992"
         inkscape:connector-curvature="0" /></clipPath><linearGradient
       x1="0"
       y1="0"
       x2="1"
       y2="0"
       gradientUnits="userSpaceOnUse"
       gradientTransform="matrix(-26.65278,-82.919762,-82.919762,26.65278,428.85922,1609.0857)"
       spreadMethod="pad"
       id="linearGradient1012"><stop
         style="stop-opacity:1;stop-color:#ffffff"
         offset="0"
         id="stop1004" /><stop
         style="stop-opacity:1;stop-color:#ffffff"
         offset="0.500558"
         id="stop1006" /><stop
         style="stop-opacity:0;stop-color:#ffffff"
         offset="0.901731"
         id="stop1008" /><stop
         style="stop-opacity:0;stop-color:#ffffff"
         offset="1"
         id="stop1010" /></linearGradient><mask
       maskUnits="userSpaceOnUse"
       x="0"
       y="0"
       width="1"
       height="1"
       id="mask1014"><g
         id="g1024"><g
           id="g1022"><g
             id="g1020"><g
               id="g1018"><path
                 d="M -32768,32767 H 32767 V -32768 H -32768 Z"
                 style="fill:url(#linearGradient1012);stroke:none"
                 id="path1016"
                 inkscape:connector-curvature="0" /></g></g></g></g></mask><linearGradient
       x1="0"
       y1="0"
       x2="1"
       y2="0"
       gradientUnits="userSpaceOnUse"
       gradientTransform="matrix(-26.65278,-82.919762,-82.919762,26.65278,428.85922,1609.0857)"
       spreadMethod="pad"
       id="linearGradient1038"><stop
         style="stop-opacity:1;stop-color:#b4cc04"
         offset="0"
         id="stop1030" /><stop
         style="stop-opacity:1;stop-color:#b4cc04"
         offset="0.500558"
         id="stop1032" /><stop
         style="stop-opacity:1;stop-color:#ffffff"
         offset="0.901731"
         id="stop1034" /><stop
         style="stop-opacity:1;stop-color:#ffffff"
         offset="1"
         id="stop1036" /></linearGradient><linearGradient
       x1="0"
       y1="0"
       x2="1"
       y2="0"
       gradientUnits="userSpaceOnUse"
       gradientTransform="matrix(0,98.682205,98.682205,0,427.39258,1516.1223)"
       spreadMethod="pad"
       id="linearGradient1064"><stop
         style="stop-opacity:1;stop-color:#004f9f"
         offset="0"
         id="stop1054" /><stop
         style="stop-opacity:1;stop-color:#004f9f"
         offset="0.219597"
         id="stop1056" /><stop
         style="stop-opacity:1;stop-color:#36a9e1"
         offset="0.646419"
         id="stop1058" /><stop
         style="stop-opacity:1;stop-color:#5bc5f2"
         offset="0.970651"
         id="stop1060" /><stop
         style="stop-opacity:1;stop-color:#5bc5f2"
         offset="1"
         id="stop1062" /></linearGradient><clipPath
       clipPathUnits="userSpaceOnUse"
       id="clipPath1074"><path
         d="M 0,1919.99 H 1080 V 0 H 0 Z"
         id="path1072"
         inkscape:connector-curvature="0" /></clipPath></defs><sodipodi:namedview
     pagecolor="#ffffff"
     bordercolor="#666666"
     borderopacity="1"
     objecttolerance="10"
     gridtolerance="10"
     guidetolerance="10"
     inkscape:pageopacity="0"
     inkscape:pageshadow="2"
     inkscape:window-width="1920"
     inkscape:window-height="1017"
     id="namedview4"
     showgrid="false"
     inkscape:zoom="0.3687519"
     inkscape:cx="426.0309"
     inkscape:cy="744.91554"
     inkscape:window-x="-8"
     inkscape:window-y="-8"
     inkscape:window-maximized="1"
     inkscape:current-layer="g10" /><g
     id="g10"
     inkscape:groupmode="layer"
     inkscape:label="jbs-logo"
     transform="matrix(1.3333333,0,0,-1.3333333,0,698.99988)"><g
       id="g884"
       transform="matrix(1.6682821,0,0,1.6682821,-638.74733,-2354.5763)"
       inkscape:export-xdpi="112.80054"
       inkscape:export-ydpi="112.80054"><g
         id="g886"
         clip-path="url(#clipPath890)"><g
           id="g892"
           transform="translate(537.1733,1549.8774)"><path
             d="m 0,0 h -14.177 c -0.348,0 -0.63,0.282 -0.63,0.63 v 11.86 c 0,0.349 0.282,0.63 0.63,0.63 h 13.331 c 6.373,0 9.373,-2.343 9.373,-6.651 C 8.527,2.061 5.716,0 0,0 m -14.807,36.854 c 0,0.347 0.282,0.63 0.63,0.63 h 12.116 c 5.62,0 8.434,-2.062 8.434,-6.277 0,-4.312 -2.907,-6.466 -9.373,-6.466 h -11.177 c -0.348,0 -0.63,0.282 -0.63,0.63 z m 28.045,-17.78 c -0.389,0.134 -0.441,0.66 -0.077,0.854 2.267,1.213 7.172,4.766 7.172,12.776 0,11.245 -7.59,17.15 -22.208,17.15 h -25.7 c -0.609,0 -1.102,-0.494 -1.102,-1.103 v -60.016 c 0,-0.609 0.493,-1.103 1.102,-1.103 H 0.468 c 14.525,0 22.116,5.902 22.116,17.336 0,9.902 -6.578,13.17 -9.346,14.106 m 41.863,6.417 c -9.277,1.029 -11.995,2.622 -11.995,6.184 0,4.215 4.311,6.84 11.152,6.84 8.136,0 15.07,-3.69 18.078,-5.573 0.698,-0.438 1.602,0.074 1.602,0.898 v 11.278 c 0,0.699 -0.368,1.35 -0.972,1.701 -4.099,2.379 -11.35,3.971 -18.519,3.971 -15.743,0 -25.116,-7.495 -25.116,-19.958 0,-11.432 6.184,-16.775 22.209,-18.555 9.466,-1.032 12.37,-2.718 12.37,-6.465 0,-4.498 -4.029,-6.841 -11.62,-6.841 -9.304,0 -17.697,4.426 -21.089,6.477 C 30.5,5.872 29.613,5.363 29.613,4.541 V -6.816 c 0,-0.66 0.315,-1.289 0.871,-1.642 5.004,-3.179 12.638,-4.849 22.274,-4.849 15.932,0 24.927,7.03 24.927,19.494 0,11.899 -6.184,17.522 -22.584,19.304 M -53.345,49.854 c -0.608,0 -1.102,-0.494 -1.102,-1.103 V 11.434 c 0,-8.623 -3.063,-12.37 -10.372,-12.37 -5.004,0 -9.806,2.031 -14.339,5.625 -0.695,0.551 -1.713,0.069 -1.713,-0.818 V -7.383 c 0,-0.654 0.301,-1.308 0.867,-1.637 4.544,-2.639 8.462,-4.314 15.185,-4.508 15.056,-0.438 24.24,8.302 24.24,23.555 v 38.724 c 0,0.609 -0.494,1.103 -1.103,1.103 z"
             style="fill:#291f6c;fill-opacity:1;fill-rule:nonzero;stroke:none"
             id="path894"
             inkscape:connector-curvature="0" /></g></g></g><g
       id="g896"
       transform="matrix(1.6682821,0,0,1.6682821,-638.74733,-2354.5763)"
       inkscape:export-xdpi="112.80054"
       inkscape:export-ydpi="112.80054"><g
         id="g898"
         clip-path="url(#clipPath902)"><g
           id="g904"><g
             id="g906" /><g
             id="g934"
             mask="url(#mask922)"><g
               id="g936"><path
                 d="m 668.329,1609.294 c 0.274,-1.435 0.52,-2.88 0.736,-4.331 v 0 c 2.209,-14.755 1.432,-29.627 -2.313,-44.201 v 0 c -1.596,-6.208 -3.687,-12.204 -6.265,-17.958 v 0 c -3.431,-7.667 -7.721,-14.907 -12.836,-21.65 v 0 h 4.031 c 1.724,2.33 3.356,4.714 4.889,7.156 v 0 c 6.197,9.852 10.807,20.594 13.75,32.044 v 0 c 3.8,14.787 4.588,29.878 2.346,44.853 v 0 c -0.205,1.369 -0.433,2.728 -0.69,4.087 v 0 z"
                 style="fill:url(#linearGradient946);stroke:none"
                 id="path948"
                 inkscape:connector-curvature="0" /></g></g></g></g></g><g
       id="g950"
       transform="matrix(1.6682821,0,0,1.6682821,-638.74733,-2354.5763)"
       inkscape:export-xdpi="112.80054"
       inkscape:export-ydpi="112.80054"><g
         id="g952"><g
           id="g958"><g
             id="g960"><path
               d="m 648.472,1621.612 c 3.546,-8.36 6.016,-17.115 7.372,-26.161 v 0 c 0.721,-4.822 1.115,-9.655 1.178,-14.484 v 0 c 0.129,-9.518 -1.015,-19.03 -3.427,-28.415 v 0 c -2.887,-11.245 -7.459,-21.771 -13.627,-31.398 v 0 h 9.621 c 1.351,2.341 2.621,4.725 3.804,7.156 v 0 c 2.286,4.675 4.254,9.513 5.897,14.494 v 0 c 0.838,2.529 1.593,5.101 2.26,7.706 v 0 c 3.91,15.217 4.723,30.747 2.415,46.156 v 0 c -1.287,8.587 -3.504,16.928 -6.63,24.946 v 0 z"
               style="fill:url(#linearGradient972);stroke:none"
               id="path974"
               inkscape:connector-curvature="0" /></g></g></g></g><g
       id="g976"
       transform="matrix(1.6682821,0,0,1.6682821,-638.74733,-2354.5763)"
       inkscape:export-xdpi="112.80054"
       inkscape:export-ydpi="112.80054"><g
         id="g978"
         clip-path="url(#clipPath982)"><g
           id="g984"
           transform="translate(608.6151,1515.3892)"><path
             d="m 0,0 c 5.179,4.577 9.901,9.658 14.13,15.204 8.67,11.365 14.884,24.209 18.473,38.178 3.588,13.967 4.336,28.217 2.217,42.354 -0.531,3.542 -1.235,7.04 -2.111,10.487 h 11.265 c 0.668,-2.924 1.229,-5.88 1.675,-8.867 1.585,-10.583 1.716,-21.22 0.4,-31.778 C 45.425,60.582 44.477,55.602 43.207,50.656 39.252,35.261 32.4,21.1 22.835,8.563 20.563,5.584 18.163,2.729 15.639,0 Z"
             style="fill:#291f6c;fill-opacity:1;fill-rule:nonzero;stroke:none"
             id="path986"
             inkscape:connector-curvature="0" /></g></g></g><g
       id="g988"
       transform="matrix(1.6682821,0,0,1.6682821,-638.74733,-2354.5763)"
       inkscape:export-xdpi="112.80054"
       inkscape:export-ydpi="112.80054"><g
         id="g990"
         clip-path="url(#clipPath994)"><g
           id="g996"><g
             id="g998" /><g
             id="g1026"
             mask="url(#mask1014)"><g
               id="g1028"><path
                 d="m 428.318,1615.846 c -1.724,-2.329 -3.356,-4.713 -4.889,-7.154 v 0 c -6.197,-9.853 -10.807,-20.594 -13.75,-32.045 v 0 c -3.8,-14.788 -4.588,-29.879 -2.346,-44.852 v 0 c 0.205,-1.369 0.433,-2.73 0.69,-4.087 v 0 h 3.648 c -0.274,1.433 -0.52,2.879 -0.736,4.33 v 0 c -2.209,14.755 -1.432,29.627 2.313,44.201 v 0 c 1.596,6.209 3.687,12.203 6.265,17.957 v 0 c 3.431,7.668 7.721,14.909 12.836,21.65 v 0 z"
                 style="fill:url(#linearGradient1038);stroke:none"
                 id="path1040"
                 inkscape:connector-curvature="0" /></g></g></g></g></g><g
       id="g1042"
       transform="matrix(1.6682821,0,0,1.6682821,-638.74733,-2354.5763)"
       inkscape:export-xdpi="112.80054"
       inkscape:export-ydpi="112.80054"><g
         id="g1044"><g
           id="g1050"><g
             id="g1052"><path
               d="m 430.411,1615.846 c -1.351,-2.34 -2.621,-4.725 -3.804,-7.154 v 0 c -2.286,-4.676 -4.254,-9.514 -5.897,-14.496 v 0 c -0.838,-2.529 -1.593,-5.099 -2.26,-7.706 v 0 c -3.91,-15.217 -4.723,-30.745 -2.415,-46.154 v 0 c 1.287,-8.588 3.504,-16.929 6.63,-24.947 v 0 h 8.863 c -3.546,8.361 -6.016,17.115 -7.372,26.162 v 0 c -0.721,4.82 -1.116,9.655 -1.178,14.483 v 0 c -0.129,9.518 1.015,19.031 3.427,28.414 v 0 c 2.887,11.246 7.459,21.771 13.627,31.398 v 0 z"
               style="fill:url(#linearGradient1064);stroke:none"
               id="path1066"
               inkscape:connector-curvature="0" /></g></g></g></g><g
       id="g1068"
       transform="matrix(1.6682821,0,0,1.6682821,-638.74733,-2354.5763)"
       inkscape:export-xdpi="112.80054"
       inkscape:export-ydpi="112.80054"><g
         id="g1070"
         clip-path="url(#clipPath1074)"><g
           id="g1076"
           transform="translate(471.385,1621.6117)"><path
             d="m 0,0 c -5.179,-4.577 -9.901,-9.658 -14.131,-15.203 -8.669,-11.366 -14.883,-24.21 -18.472,-38.179 -3.588,-13.967 -4.336,-28.217 -2.217,-42.353 0.531,-3.543 1.235,-7.041 2.111,-10.488 h -11.265 c -0.668,2.924 -1.229,5.88 -1.675,8.867 -1.585,10.583 -1.716,21.221 -0.4,31.779 0.624,4.995 1.572,9.975 2.842,14.921 3.955,15.395 10.807,29.556 20.371,42.093 2.273,2.979 4.673,5.834 7.197,8.563 z"
             style="fill:#291f6c;fill-opacity:1;fill-rule:nonzero;stroke:none"
             id="path1078"
             inkscape:connector-curvature="0" /></g></g></g></g></svg>